<?xml version="1.0" encoding="UTF-8"?>
<svg id="Layer_1" data-name="Layer 1" xmlns="http://www.w3.org/2000/svg" viewBox="0 0 1000 1000">
  <defs>
    <style>
      .cls-1 {
        fill: #293247;
      }
    </style>
  </defs>
  <polygon class="cls-1" points="486.31 667.4 326.43 504.11 326.43 490.58 489.09 667.17 486.31 667.4"/>
  <polygon class="cls-1" points="439.76 667.61 326.43 550.81 326.43 538.26 442.62 667.61 439.76 667.61"/>
  <polygon class="cls-1" points="393 667.61 326.44 598.34 326.44 585.79 395.59 667.61 393 667.61"/>
  <polygon class="cls-1" points="351.72 667.61 326.43 642.58 326.43 631.89 354.28 667.61 351.72 667.61"/>
  <polygon class="cls-1" points="350.85 465.21 326.43 465.21 326.43 472.74 343.47 472.74 342.98 473.25 523.14 657.24 525.14 656.2 350.85 465.21"/>
  <polygon class="cls-1" points="374.23 441.33 326.44 441.33 326.44 448.55 367.16 448.55 366.37 449.38 550.03 636.96 551.53 635.31 374.23 441.33"/>
  <polygon class="cls-1" points="397.61 417.46 326.44 417.46 326.44 424.36 390.85 424.36 389.75 425.5 568.72 608.29 569.67 605.99 397.61 417.46"/>
  <polygon class="cls-1" points="576.79 551.83 576.79 565.3 420.99 393.57 326.43 393.57 326.43 400.16 414.54 400.16 413.12 401.61 576.79 568.76 673.57 667.6 673.57 663.04 576.79 551.83"/>
  <polygon class="cls-1" points="576.79 504.07 576.79 517.52 444.37 369.7 326.43 369.7 326.43 375.97 438.23 375.97 436.51 377.73 576.79 521.01 673.57 619.85 673.57 615.29 576.79 504.07"/>
  <polygon class="cls-1" points="576.79 456.32 576.79 468.02 467.75 345.83 326.43 345.83 326.43 351.78 461.91 351.78 459.89 353.86 576.79 473.25 673.57 572.1 673.57 567.54 576.79 456.32"/>
  <polygon class="cls-1" points="576.79 408.56 576.79 418.48 491.14 321.94 326.43 321.94 326.43 327.58 485.6 327.58 483.26 329.97 576.79 425.49 673.57 524.33 673.57 519.77 576.79 408.56"/>
  <polygon class="cls-1" points="576.79 360.8 576.79 368.94 514.52 298.06 326.43 298.06 326.43 303.4 509.29 303.4 506.64 306.1 576.79 377.73 673.57 476.58 673.57 472.02 576.79 360.8"/>
  <polygon class="cls-1" points="576.79 313.05 576.79 319.32 537.89 274.19 326.43 274.19 326.43 279.21 532.97 279.21 530.02 282.23 576.79 329.98 673.57 428.82 673.57 424.27 576.79 313.05"/>
  <polygon class="cls-1" points="576.79 265.28 576.79 269.38 561.27 250.31 326.43 250.31 326.43 255.01 556.67 255.01 553.41 258.34 576.79 282.22 673.57 381.06 673.57 376.5 576.79 265.28"/>
  <polygon class="cls-1" points="673.57 333.31 673.57 328.74 584.65 226.43 584.65 226.42 326.44 226.42 326.44 230.82 580.35 230.82 576.79 234.46 673.57 333.31"/>
  <polygon class="cls-1" points="608.04 202.55 608.04 202.55 326.43 202.55 326.43 206.63 604.04 206.63 600.17 210.6 673.56 285.55 673.56 280.99 608.04 202.55"/>
  <polygon class="cls-1" points="631.42 178.67 631.42 178.67 326.43 178.67 326.43 182.43 627.73 182.43 623.55 186.71 673.56 237.79 673.56 233.23 631.42 178.67"/>
  <polygon class="cls-1" points="654.8 154.79 654.8 154.79 326.44 154.79 326.44 158.24 651.41 158.24 646.93 162.83 673.57 190.03 673.57 186.51 654.8 154.79"/>
  <g>
    <path class="cls-1" d="m334.66,839.87c-.17-.18-.36-.3-.59-.4-.22-.1-.47-.15-.73-.15s-.5.05-.71.15-.41.23-.58.4c-.18.18-.3.37-.39.61-.1.23-.15.47-.15.74,0,.52.18.96.53,1.31.34.36.78.54,1.3.54s.97-.18,1.32-.54c.35-.35.54-.79.54-1.31,0-.27-.05-.52-.15-.74-.09-.23-.23-.43-.39-.61"/>
    <path class="cls-1" d="m339.8,839.87c-.17-.18-.36-.3-.58-.4-.23-.1-.46-.15-.72-.15s-.5.05-.71.15c-.22.1-.41.23-.59.4-.17.18-.29.37-.39.61-.09.23-.14.47-.14.74,0,.52.18.96.53,1.31.34.36.78.54,1.3.54s.96-.18,1.31-.54c.34-.35.52-.79.52-1.31,0-.27-.04-.52-.14-.74-.09-.23-.23-.43-.39-.61"/>
    <path class="cls-1" d="m357.17,832.12h-6.24v-12.56h-5.15c-2.04,0-3.62.57-4.71,1.69-1.11,1.13-1.65,2.73-1.65,4.82v6.04l-5.48.02c-.88,0-1.59-.1-2.13-.3-.54-.21-.95-.48-1.24-.83s-.49-.75-.6-1.22c-.11-.46-.17-.96-.18-1.48,0-.7.08-1.39.22-2.05.15-.67.33-1.24.54-1.72l-2.96-1.6c-.33.68-.6,1.5-.82,2.43-.22.92-.32,1.89-.32,2.88,0,.92.13,1.81.39,2.69.26.88.68,1.66,1.27,2.35.59.68,1.36,1.24,2.32,1.66.96.42,2.13.63,3.51.63h8.83v-9.48c0-.58.03-1.06.13-1.46.09-.39.25-.7.48-.95.22-.24.52-.42.9-.53.38-.11.86-.16,1.43-.16l1.89.04v12.53h12.93v-22.94h-3.35v19.5Z"/>
    <path class="cls-1" d="m386.05,832.12h-8.07v-5.2c0-.5.11-.99.32-1.46.22-.47.51-.88.87-1.25.36-.36.77-.65,1.23-.88.46-.23.93-.34,1.42-.34h.14c.06,0,.25,0,.58.02h.64c.27,0,.57,0,.87,0,.31,0,.65.01.99.02h1.02v9.09Zm9.75,0h-6.39v-12.56h-7.51c-1.01-.03-1.96.17-2.86.61-.88.44-1.65,1.02-2.31,1.72-.66.71-1.17,1.52-1.56,2.41-.38.89-.57,1.77-.57,2.63v5.19h-6.67v-19.5h-3.35v22.94h34.55v-22.94h-3.35v19.5Z"/>
  </g>
  <rect class="cls-1" x="404.1" y="812.62" width="3.33" height="22.9"/>
  <path class="cls-1" d="m422.96,832.12v-5.04c0-.55.1-1.08.31-1.57.21-.5.5-.94.86-1.31.36-.36.78-.66,1.26-.88.49-.22,1.01-.33,1.56-.33l4.02.02.02,9.12h-8.03Zm28.9,0h-6.98v-19.5h-3.35v19.5h-7.18l-.05-12.56h-7.35c-1.02,0-1.98.21-2.87.6-.89.39-1.67.93-2.34,1.61-.67.67-1.19,1.48-1.57,2.4-.38.91-.58,1.89-.58,2.91v8.47h35.6v-22.94h-3.35v19.5Z"/>
  <rect class="cls-1" x="459.78" y="812.62" width="3.32" height="22.9"/>
  <g>
    <path class="cls-1" d="m490.89,839.86c-.17-.18-.36-.3-.58-.4-.22-.1-.46-.15-.72-.15s-.5.05-.71.15c-.22.1-.41.23-.59.4-.17.18-.29.37-.39.6-.09.24-.14.48-.14.75,0,.53.18.98.53,1.33.34.35.78.54,1.3.54s.96-.19,1.31-.54c.34-.35.52-.8.52-1.33,0-.27-.04-.52-.14-.75-.09-.22-.23-.42-.39-.6"/>
    <path class="cls-1" d="m503.73,831.73c-.49-.26-.9-.61-1.21-1.03-.32-.43-.56-.92-.7-1.47-.15-.54-.23-1.1-.23-1.65s.08-1.12.23-1.66c.16-.55.39-1.04.71-1.47.31-.43.71-.78,1.2-1.06.49-.26,1.07-.4,1.73-.4h6.64v-3.43h-6.64c-1.17,0-2.22.23-3.12.68-.91.45-1.66,1.05-2.27,1.8-.6.75-1.06,1.6-1.37,2.56-.31.97-.47,1.96-.47,2.97,0,.69.1,1.43.27,2.19.18.76.47,1.55.85,2.35h-7.72v-11.9h-3.35v11.9h-5.98c-.1-2.07-.35-3.85-.74-5.34-.4-1.49-1.03-2.74-1.87-3.75-.52-.58-1.11-1.09-1.76-1.53-.67-.43-1.41-.78-2.26-1.06-.85-.27-1.79-.48-2.84-.61-1.05-.14-2.21-.2-3.48-.19v3.41c2.01-.03,3.67.16,4.92.53,1.24.37,2.2.95,2.88,1.71.56.68.98,1.57,1.27,2.69.28,1.11.47,2.48.54,4.1h-10.89v3.43l16.33.02h28.27v-3.43h-7.22c-.67,0-1.25-.13-1.74-.39"/>
    <path class="cls-1" d="m538.6,820.08h-3.24c-.55-.03-.95-.18-1.19-.47-.23-.28-.36-.61-.36-.96,0-.37.14-.7.41-1.02.27-.3.71-.45,1.31-.45l2.76.02v-2.52h-2.91c-.68,0-1.28.12-1.8.34-.52.23-.95.53-1.3.9-.34.36-.61.79-.79,1.27-.18.47-.26.96-.26,1.46,0,.25,0,.5.05.74.04.24.11.47.21.68h-1.27v2.52h8.4v-2.52Z"/>
    <path class="cls-1" d="m573.37,832.12h-8.07v-5.2c0-.5.11-.99.32-1.46.23-.47.51-.88.87-1.25.36-.36.77-.65,1.23-.88.46-.23.94-.34,1.42-.34h.14c.06,0,.25,0,.58.02h.64c.27,0,.57,0,.88,0,.3,0,.64.01.98.02h1.02v9.09Zm9.75,0h-6.39v-12.56h-7.51c-1.01-.03-1.96.17-2.85.61-.89.44-1.66,1.02-2.32,1.72-.66.71-1.17,1.52-1.56,2.41s-.57,1.77-.57,2.63v5.19h-6.41v-19.5h-3.35v19.5h-6.95v-19.5h-3.35v19.5l-10.38.02c-.81-.01-1.48-.13-2-.33-.52-.22-.92-.49-1.21-.84-.29-.35-.49-.75-.6-1.21s-.16-.95-.16-1.47c0-.7.07-1.38.22-2.04.14-.66.32-1.24.55-1.73-.27-.15-.53-.27-.76-.4-.24-.13-.48-.25-.71-.37-.23-.13-.48-.25-.71-.38-.24-.14-.51-.28-.78-.43-.32.68-.6,1.5-.81,2.43-.22.92-.32,1.89-.32,2.88,0,.89.13,1.77.38,2.65.25.88.67,1.66,1.26,2.36.59.69,1.35,1.25,2.31,1.68.95.42,2.13.64,3.54.64h54.78v-22.94h-3.35v19.5Z"/>
  </g>
  <rect class="cls-1" x="591.42" y="812.62" width="3.33" height="22.9"/>
  <g>
    <path class="cls-1" d="m614.38,817.75c.52,0,.96-.18,1.31-.54.34-.35.52-.8.52-1.33,0-.27-.05-.52-.14-.74-.1-.23-.22-.43-.39-.61-.17-.17-.36-.3-.58-.4-.22-.09-.46-.14-.72-.14s-.5.05-.71.14c-.23.1-.42.23-.59.4-.17.18-.29.37-.39.61-.09.23-.14.47-.14.74,0,.53.18.98.52,1.33.35.36.79.54,1.31.54"/>
    <path class="cls-1" d="m640.46,824.8c-.23-.45-.54-.81-.92-1.07-.37-.26-.84-.45-1.4-.58-.56-.12-1.21-.2-1.96-.22-.75-.03-1.61-.05-2.58-.05h-7.71c.58-1.09,1.08-2.03,1.97-2.84.89-.8,1.86-1.48,2.91-2.02,1.05-.54,2.14-.94,3.29-1.2,1.13-.27,2.38-.4,3.46-.4v-3.43h-.28c-1.4,0-2.83.17-4.27.52-1.45.35-2.82.87-4.11,1.57-1.3.69-2.47,1.56-3.54,2.58-1.07,1.02-1.93,2.2-2.57,3.55-.38.78-.58,1.55-.58,2.31v2.77c1.67,0,6.09,0,7.76.02,1.65,0,3.32.02,4.99.02.65,0,1.15.03,1.53.08.38.05.66.19.85.4.2.22.31.55.37.99.05.45.07,1.08.07,1.89v2.45h-21.35c0-.21.02-.43.03-.67,0-.24,0-.5.02-.75,0-.25,0-.51.02-.75,0-.25,0-.48,0-.68,0-.12,0-.37,0-.74,0-.36-.02-.79-.04-1.27-.02-.49-.04-1-.05-1.55,0-.55-.03-1.06-.05-1.53s-.03-.88-.04-1.23c0-.35,0-.58,0-.68h-3.34c0,.41,0,.85.02,1.31,0,.46.03.93.05,1.42.03.65.05,1.32.06,2.01,0,.69.02,1.39.02,2.09,0,.98-.03,1.97-.08,2.95-.05,1-.16,1.96-.33,2.88-.18.92-.42,1.79-.74,2.6-.31.81-.74,1.53-1.27,2.14-.54.61-1.19,1.1-1.98,1.47-.77.37-1.71.58-2.81.63v3.45c1.56-.04,2.91-.31,4.04-.83,1.14-.51,2.11-1.2,2.91-2.07.8-.87,1.46-1.89,1.96-3.03.5-1.15.88-2.4,1.15-3.72h25.19s0-3.46,0-3.66v-2.91c0-.98-.05-1.81-.15-2.48-.11-.68-.27-1.25-.51-1.7"/>
    <path class="cls-1" d="m670.2,832.12h-8.07v-5.21c0-.5.11-.98.32-1.45.22-.47.51-.89.87-1.25.36-.36.77-.65,1.23-.89.46-.22.94-.34,1.42-.34h.14c.06,0,.25,0,.58.02h.64c.27,0,.57,0,.88,0,.3.01.64.01.98.02.34,0,.68,0,1.02,0v9.09Zm-4.15-12.56c-1.01-.04-1.96.17-2.85.6-.89.44-1.66,1.02-2.32,1.73-.66.71-1.17,1.52-1.56,2.41-.37.89-.57,1.76-.57,2.63v5.19h-5.88c0-.21.02-.43.02-.68,0-.24.02-.5.02-.75,0-.25,0-.5.02-.75,0-.24,0-.47,0-.67,0-.13,0-.37,0-.74,0-.37-.02-.79-.04-1.28-.02-.48-.03-1-.05-1.55,0-.55-.02-1.06-.04-1.53-.02-.47-.03-.88-.04-1.23,0-.34,0-.58,0-.67h-3.35c0,.42,0,.86.02,1.32,0,.45.03.93.06,1.41.02.65.04,1.32.06,2.01,0,.69,0,1.39,0,2.08,0,.99-.02,1.97-.07,2.96-.05.99-.17,1.95-.34,2.87-.18.93-.42,1.79-.73,2.61-.32.81-.74,1.53-1.28,2.13-.54.61-1.19,1.11-1.97,1.47-.78.37-1.72.58-2.82.64v3.45c1.56-.04,2.91-.31,4.05-.83,1.13-.52,2.1-1.21,2.91-2.08.8-.87,1.45-1.88,1.95-3.03.5-1.15.89-2.39,1.16-3.71h21.13v-15.99h-7.51Z"/>
  </g>
  <polygon class="cls-1" points="384.19 780.56 371.26 780.56 336.99 741.59 336.99 780.56 326.44 780.56 326.44 699.44 336.99 699.44 336.99 736.16 370.12 699.44 383.05 699.44 347.99 738.84 384.19 780.56"/>
  <polygon class="cls-1" points="463.43 752.29 449.16 712.25 434.89 752.29 431.3 762.38 424.83 780.57 413.59 780.57 443.21 699.45 455.12 699.45 484.73 780.57 473.5 780.57 467.02 762.38 463.43 752.29"/>
  <polygon class="cls-1" points="565.99 709.65 530.81 709.65 530.81 735.95 564.51 735.95 564.51 746.15 530.81 746.15 530.81 780.56 520.27 780.56 520.27 699.44 565.99 699.44 565.99 709.65"/>
  <path class="cls-1" d="m635.9,770.37c8.09,0,14.71-2.9,19.86-8.69,5.15-5.8,7.72-13.02,7.72-21.68s-2.57-15.87-7.72-21.67c-5.15-5.79-11.77-8.69-19.86-8.69h-20.42v60.71h20.42Zm0-70.92c10.82,0,19.8,3.92,26.95,11.77,7.15,7.84,10.72,17.43,10.72,28.79s-3.57,20.96-10.72,28.8c-7.15,7.84-16.13,11.77-26.95,11.77h-30.98v-81.12h30.98Z"/>
</svg>