<?xml version="1.0" encoding="utf-8"?>
<!-- Generator: Adobe Illustrator 27.2.0, SVG Export Plug-In . SVG Version: 6.00 Build 0)  -->
<svg version="1.1" xmlns="http://www.w3.org/2000/svg" xmlns:xlink="http://www.w3.org/1999/xlink" x="0px" y="0px"
	 viewBox="0 0 1000 1000" style="enable-background:new 0 0 1000 1000;" xml:space="preserve">
<style type="text/css">
	.st0{fill-rule:evenodd;clip-rule:evenodd;fill:url(#Path_1_00000111181973626286875230000014097902258237871764_);}
	.st1{fill-rule:evenodd;clip-rule:evenodd;fill:url(#Path_2_00000177479533533578733700000006454915395013439148_);}
	.st2{fill-rule:evenodd;clip-rule:evenodd;fill:url(#Path_3_00000157281624163090262500000011113600300052780176_);}
	.st3{fill-rule:evenodd;clip-rule:evenodd;fill:url(#Path_4_00000010308966359829577820000001020701267236155065_);}
	.st4{fill-rule:evenodd;clip-rule:evenodd;fill:url(#Path_5_00000141444812563276608120000009506509045198101932_);}
	.st5{fill-rule:evenodd;clip-rule:evenodd;fill:url(#Path_6_00000147910197709699820210000004357909190135192194_);}
	.st6{fill-rule:evenodd;clip-rule:evenodd;fill:url(#Path_7_00000080183896603398201520000011271789580510460601_);}
	.st7{fill:url(#Path_8_00000084487546409307724270000005821637995565304464_);}
	.st8{fill:url(#Path_9_00000058550671856342791970000000406676005983822742_);}
	.st9{fill:url(#Path_10_00000069387497843863050360000000034319600952001159_);}
	.st10{fill:url(#Path_11_00000101092422394801991180000014971887601886751624_);}
	.st11{fill:url(#Path_12_00000141421092916219255900000009005410353838471590_);}
	.st12{fill:url(#Path_13_00000110436730861703166040000007634351456106521731_);}
	.st13{fill:url(#Path_14_00000088821413492701961820000014622227869544459948_);}
	.st14{fill:url(#Path_15_00000142178397853225933950000017530428090425669283_);}
	.st15{fill:url(#Path_16_00000026163827015388920580000010184680168961960576_);}
	.st16{fill-rule:evenodd;clip-rule:evenodd;fill:url(#Path_17_00000172435168508800876550000001127823507003023535_);}
	.st17{fill:url(#Path_18_00000080904523647668459560000004403537003813315971_);}
	.st18{fill:url(#Path_19_00000098183200124870467100000001264960327834863275_);}
	.st19{fill-rule:evenodd;clip-rule:evenodd;fill:url(#Path_20_00000090981852160744712880000000547118621308334223_);}
	.st20{fill-rule:evenodd;clip-rule:evenodd;fill:url(#Path_21_00000093151734129378280650000011830359148546402741_);}
	.st21{fill:url(#Path_22_00000045615051993764147370000014443965031570681507_);}
	.st22{fill:url(#Path_23_00000014632788951816968990000011401558852511971218_);}
	.st23{fill-rule:evenodd;clip-rule:evenodd;fill:url(#Path_24_00000137847313718687352580000016386552450797273250_);}
	.st24{fill-rule:evenodd;clip-rule:evenodd;fill:url(#Path_25_00000011024105097747020630000009301515774621611965_);}
	.st25{fill:url(#Path_26_00000162322571993738296830000006254550806308674971_);}
	.st26{fill:url(#Path_27_00000098212272643138524900000012334399590065046188_);}
</style>
<g id="Layer_1">
	<g>
		<g id="Clip-Path:_App_x5F_Logo">
			<g id="App_Logo">
				<g id="Group_33">
					<g id="Group_16">
						<g id="Group_1">
							
								<linearGradient id="Path_1_00000034048810607194124200000000145629199815572157_" gradientUnits="userSpaceOnUse" x1="80.3831" y1="1743.3816" x2="1147.4882" y2="2315.6692" gradientTransform="matrix(1 0 0 -1 0 2375.7463)">
								<stop  offset="0" style="stop-color:#21A3D0"/>
								<stop  offset="0.355" style="stop-color:#E10A7E"/>
								<stop  offset="1" style="stop-color:#91267F"/>
							</linearGradient>
							
								<path id="Path_1" style="fill-rule:evenodd;clip-rule:evenodd;fill:url(#Path_1_00000034048810607194124200000000145629199815572157_);" d="
								M659.6,399.3c0.9-2.2,1.9-4.3,2.9-6.5c1-2.1,2-4.2,3.1-6.4c1.1-2.1,2.1-4.2,3.2-6.3c1.1-2.1,2.3-4.1,3.5-6.2
								c16.9-31.5,59.7-53.1,59.7-60.8c-0.2-7.9-36.9-1.5-50.7,2.9c-0.8,0.2-1.7,0.5-2.5,0.8c-0.8,0.3-1.6,0.6-2.4,1
								c-0.8,0.4-1.5,0.8-2.3,1.3c-0.7,0.4-1.4,0.9-2.2,1.4c-0.3,0.4-0.7,0.7-1.1,1c-0.4,0.2-0.9,0.4-1.4,0.4c-0.5,0.1-1,0.1-1.4,0
								c-0.5-0.1-0.9-0.3-1.4-0.5c-0.4-0.3-0.7-0.7-1-1.1c-0.3-0.4-0.5-0.9-0.6-1.4c-0.1-0.4-0.1-1-0.1-1.4c0-0.5,0.1-1,0.3-1.4
								c2.7-8.7,6.5-16.6,16.5-19.2c4.5-1.3,9.2-2.4,13.8-3.2c4.6-0.9,9.4-1.5,14-1.9c4.7-0.4,9.5-0.6,14.2-0.6
								c4.8,0,9.5,0.2,14.2,0.6c2,0,4,0.6,5.7,1.6c1.7,1,3.1,2.5,4.1,4.2c1,1.7,1.5,3.7,1.4,5.7c0,2-0.6,4-1.6,5.7
								c-5,11.1-14.2,18.6-23.6,25.8c-25.7,19.7-47.3,42.8-58.7,73.9c-3.7,10.3-5.6,21.2-8.5,31.8c-0.9,3.1-0.9,8.2-5.4,7.6
								c-3.9-0.6-2.7-5.5-2.9-8.5c-0.9-13.6-1.2-27.1-3.4-40.5c-0.2-1.2-0.5-2.5-0.8-3.7s-0.6-2.5-0.9-3.7c-0.4-1.2-0.7-2.4-1.2-3.6
								c-0.4-1.2-0.8-2.4-1.3-3.6c-1.9-5.3-4.7-6.6-9.8-4.2c-1.2,0.5-2.3,1-3.4,1.6c-1.1,0.6-2.2,1.3-3.2,1.9
								c-1.1,0.7-2.1,1.4-3.1,2.2c-1,0.8-1.9,1.5-2.8,2.4c-5.6,5.5-11.2,10.8-17.1,16c-5.8,5.2-11.7,10.2-17.7,15.1
								c-6.1,4.9-12.2,9.7-18.5,14.3c-6.3,4.6-12.6,9.1-19.1,13.4c-39.6,26.5-81.7,48.1-128.5,58.6c-7.2,1.8-14.5,3.4-21.8,4.8
								c-7.3,1.4-14.7,2.7-22,3.9c-7.3,1.1-14.7,2.1-22.1,2.9c-7.4,0.8-14.8,1.4-22.2,1.9c-9.6,0.4-19.2,0.5-28.8,0.2
								c-9.6-0.2-19.2-0.8-28.7-1.6c-9.6-0.9-19.1-2-28.6-3.5c-9.5-1.5-19-3.2-28.3-5.3c-16.6-3.6-33.1-7.5-49.5-12.3
								c-4.2-1.2-6.5,0-7.7,4.2c-3.1,10.4-6.5,20.7-9.8,31c-0.7,2.1-1.1,5.1-4.3,4.4c-3.2-0.6-2.7-3.4-2.5-5.6
								c0.5-5.1,1.2-10.3,2-15.3c0.8-5.1,1.9-10.2,3-15.2c1.2-5,2.6-10,4.1-14.9c1.5-5,3.3-9.8,5.2-14.6c0.1-0.7,0.4-1.3,0.9-1.8
								c0.4-0.5,1-1,1.5-1.3c0.6-0.3,1.3-0.5,2-0.5c0.7,0,1.4,0.1,2,0.3c23.2,7.3,47.2,11.8,70.9,17c6.7,1.4,13.5,2.6,20.3,3.6
								c6.8,1,13.6,1.8,20.4,2.5c6.8,0.7,13.6,1.2,20.5,1.5c6.8,0.3,13.7,0.4,20.5,0.4c4.5,0,9,0,13.5-0.1c4.5-0.1,8.9-0.3,13.4-0.7
								c4.5-0.3,8.9-0.7,13.4-1.2c4.4-0.5,8.9-1.1,13.3-1.7c4.2-0.7,8.4-1.4,12.7-2.2c4.2-0.8,8.4-1.7,12.6-2.6
								c4.2-1,8.3-1.9,12.5-3c4.1-1.1,8.3-2.2,12.4-3.4c6.6-1.8,13.1-3.8,19.5-5.9c6.5-2.1,12.9-4.2,19.3-6.6
								c6.4-2.3,12.8-4.6,19.1-7.1c6.3-2.5,12.6-5.1,18.9-7.8c6.8-2.8,13.6-5.9,20.2-9.2c6.7-3.2,13.2-6.7,19.6-10.3
								c6.4-3.7,12.8-7.5,19-11.4c6.2-4,12.3-8.2,18.3-12.5c18.2-13.4,36.5-26.7,53.3-41.9c0.6-0.6,1.2-1.1,1.9-1.6
								c0.6-0.5,1.3-1,2-1.4c0.7-0.5,1.4-0.9,2.1-1.3c0.7-0.4,1.4-0.8,2.2-1.1c2.1-1.2,4.5-1.8,6.9-1.8c2.5,0,4.9,0.6,7,1.7
								c2.1,1.2,4,2.8,5.3,4.9c1.3,2.1,2.1,4.4,2.3,6.8C656.7,379,653.9,404.7,659.6,399.3z"/>
							
								<linearGradient id="Path_2_00000022535536481547638570000013665534804922861728_" gradientUnits="userSpaceOnUse" x1="209.7688" y1="1503.1632" x2="1275.943" y2="2075.7595" gradientTransform="matrix(1 0 0 -1 0 2375.7463)">
								<stop  offset="0" style="stop-color:#21A3D0"/>
								<stop  offset="0.355" style="stop-color:#E10A7E"/>
								<stop  offset="1" style="stop-color:#91267F"/>
							</linearGradient>
							
								<path id="Path_2" style="fill-rule:evenodd;clip-rule:evenodd;fill:url(#Path_2_00000022535536481547638570000013665534804922861728_);" d="
								M814.5,544.7c-0.7,5-1.7,9.8-2.8,14.7c-1.2,4.8-2.7,9.6-4.3,14.3c-1.7,4.7-3.6,9.3-5.7,13.8c-2.1,4.5-4.5,8.9-7,13.2
								c-1.4,2.1-2.9,4.1-4.6,6.1c-1.6,1.9-3.4,3.7-5.4,5.4c-1.9,1.6-4,3.1-6.1,4.4c-2.2,1.4-4.4,2.6-6.8,3.6
								c-18.3,8-26.2,22.3-29.5,40.8c-0.4,2.7-0.9,5.3-1.4,7.9c-0.6,2.6-1.3,5.2-2.1,7.7c-0.8,2.6-1.6,5.1-2.7,7.6
								c-1,2.5-2.1,5-3.2,7.3c-1.1,2-2.3,3.9-3.7,5.7c-1.4,1.7-2.9,3.4-4.7,4.9c-1.7,1.4-3.5,2.7-5.5,3.9c-1.9,1.1-4,2-6.1,2.7
								c-17.7,6.4-36.4,8.3-54.9,10.7c-1.4,0.1-3.3,0.6-4-1.1c-0.9-2.1,1.1-3,2.5-3.7c3.6-1.7,7.3-3.1,11-4.7
								c24.6-10.6,44-28.3,62-47.6c6.5-6.9,6.5-16.6,9.2-25.2c0.5-2,1.1-4,1.7-5.9c0.6-1.9,1.3-3.9,2.1-5.8c0.7-1.9,1.5-3.8,2.4-5.6
								c0.8-1.9,1.7-3.7,2.7-5.5c1.2-2.1,2.6-4.1,4.1-6c1.5-1.9,3.1-3.7,4.9-5.3c1.8-1.6,3.7-3.1,5.6-4.5c2-1.4,4.1-2.6,6.3-3.7
								c1.8-0.9,3.6-1.9,5.4-3c1.7-1,3.5-2.1,5.2-3.2c1.7-1.1,3.4-2.3,5.1-3.4c1.7-1.2,3.3-2.4,4.9-3.7c1.2-0.8,2.2-1.8,3.2-2.8
								c0.9-1.1,1.7-2.2,2.4-3.4c0.6-1.3,1.2-2.6,1.5-4c0.3-1.4,0.6-2.7,0.6-4.1c0.6-9.1,0-18-0.1-27.1c-0.1-20.2,0-40.4-0.6-60.5
								c-0.4-13.8,6.3-24.5,13.6-35.1c2.2-3.2,4.2-2.8,5.8,1C817.2,449.8,815.7,537.2,814.5,544.7z"/>
							
								<linearGradient id="Path_3_00000054986178750895545320000003486275355499100545_" gradientUnits="userSpaceOnUse" x1="173.5153" y1="1570.9514" x2="1239.2505" y2="2143.5332" gradientTransform="matrix(1 0 0 -1 0 2375.7463)">
								<stop  offset="0" style="stop-color:#21A3D0"/>
								<stop  offset="0.355" style="stop-color:#E10A7E"/>
								<stop  offset="1" style="stop-color:#91267F"/>
							</linearGradient>
							
								<path id="Path_3" style="fill-rule:evenodd;clip-rule:evenodd;fill:url(#Path_3_00000054986178750895545320000003486275355499100545_);" d="
								M673.6,578.1c0.5,2.2,1.4,4.1,2.7,5.9c1.4,1.7,3,3.1,5,4.1c1.9,1,4.1,1.5,6.3,1.6c2.2,0,4.3-0.3,6.3-1.2
								c1.5-0.6,2.8-1.3,4.2-2.1c1.3-0.8,2.5-1.8,3.6-2.8c1.2-1.1,2.1-2.3,3-3.5c0.9-1.3,1.6-2.7,2.2-4.1c0.4-1.1,0.8-2.3,1.2-3.4
								c0.4-1.1,0.8-2.2,1.3-3.3c0.5-1.1,1-2.2,1.5-3.3c0.5-1.1,1.1-2.1,1.6-3.2c1-1.5,2.1-2.9,4.2-2.4c0.4,0.1,0.8,0.3,1.2,0.6
								c0.3,0.2,0.7,0.6,0.9,0.9c0.2,0.4,0.4,0.8,0.4,1.3c0.1,0.4,0.1,0.9,0,1.3c-4.5,16.5-6.9,34.5-20.8,46.5
								c-1.5,1.4-3.3,2.7-5.2,3.6c-1.9,0.9-3.9,1.6-6,1.9c-2.1,0.3-4.2,0.4-6.3,0.1c-2.1-0.3-4.2-0.9-6.1-1.8c-2.1-1-4-2.2-5.7-3.7
								c-1.7-1.4-3.3-3.1-4.6-5c-1.3-1.9-2.4-3.9-3.1-6c-0.8-2.2-1.3-4.4-1.4-6.7c-1.1-7.1,2.5-83.6,2-114.7c0-2.4,0.2-4.7,0.6-7.1
								c0.3-2.3,0.8-4.6,1.4-6.9c0.6-2.3,1.3-4.5,2.1-6.8c0.9-2.2,1.8-4.3,2.8-6.5c1.1-2.4,2.7-4,5.3-3.5c2.8,0.5,2.5,3.1,2.4,5.2
								C676.5,455.1,672.5,570.7,673.6,578.1z"/>
							
								<linearGradient id="Path_4_00000001635133793495136440000010460987787331331200_" gradientUnits="userSpaceOnUse" x1="137.7777" y1="1636.7378" x2="1204.1785" y2="2209.7488" gradientTransform="matrix(1 0 0 -1 0 2375.7463)">
								<stop  offset="0" style="stop-color:#21A3D0"/>
								<stop  offset="0.355" style="stop-color:#E10A7E"/>
								<stop  offset="1" style="stop-color:#91267F"/>
							</linearGradient>
							
								<path id="Path_4" style="fill-rule:evenodd;clip-rule:evenodd;fill:url(#Path_4_00000001635133793495136440000010460987787331331200_);" d="
								M858.6,354.3c-0.7,12.4,1.6,51.4-49.9,70.6c-1.7,0.5-3.4,1-5.1,1.4c-1.7,0.5-3.4,0.9-5.1,1.4c-1.7,0.4-3.5,0.8-5.2,1.1
								c-1.7,0.4-3.5,0.7-5.2,1c-1.9,0.4-4.3,1.2-5.3-1.3c-1.2-2.8,1.2-3.6,3.1-4.8c16.1-10.6,33.5-19.2,48-32.2
								c4.8-4.2,10-8.3,9.5-15.8c-0.3-5.5-2.7-7.7-8.1-6.8c-21,3.5-26.5-2.3-22.1-23.4c0.2-1.2,0.5-2.4,0.7-3.5
								c0.3-1.2,0.6-2.4,1-3.5c0.3-1.2,0.7-2.3,1.1-3.5c0.4-1.1,0.8-2.3,1.3-3.4c0.7-2.4,2-4.6,3.8-6.4c1.7-1.8,3.9-3.1,6.2-4
								c2.4-0.8,4.9-1,7.4-0.6c2.5,0.4,4.8,1.4,6.8,2.8c2.7,1.5,5.1,3.4,7.3,5.6c2.2,2.2,4.1,4.7,5.5,7.4s2.6,5.6,3.3,8.6
								C858.4,348.1,858.7,351.2,858.6,354.3L858.6,354.3z"/>
							
								<linearGradient id="Path_5_00000005246355586919638130000009548359677626613690_" gradientUnits="userSpaceOnUse" x1="119.5344" y1="1670.6051" x2="1186.1282" y2="2243.2739" gradientTransform="matrix(1 0 0 -1 0 2375.7463)">
								<stop  offset="0" style="stop-color:#21A3D0"/>
								<stop  offset="0.355" style="stop-color:#E10A7E"/>
								<stop  offset="1" style="stop-color:#91267F"/>
							</linearGradient>
							
								<path id="Path_5" style="fill-rule:evenodd;clip-rule:evenodd;fill:url(#Path_5_00000005246355586919638130000009548359677626613690_);" d="
								M781.5,399.1c-1.4,6.8-3.5,13.5-5.5,20.1c-0.6,2.3-1.8,4.9-4.6,4.1c-2.4-0.7-2.4-99.9-1.7-121.5c0.3-10.2,7.9-17.1,15.1-23.2
								c2.6-2.2,2.5,2,2.5,3.8C787.6,293.8,786.9,371.9,781.5,399.1z"/>
							
								<linearGradient id="Path_6_00000029022104981517582840000016062312995416494254_" gradientUnits="userSpaceOnUse" x1="221.8444" y1="1478.9215" x2="1287.8256" y2="2051.4792" gradientTransform="matrix(1 0 0 -1 0 2375.7463)">
								<stop  offset="0" style="stop-color:#21A3D0"/>
								<stop  offset="0.355" style="stop-color:#E10A7E"/>
								<stop  offset="1" style="stop-color:#91267F"/>
							</linearGradient>
							
								<path id="Path_6" style="fill-rule:evenodd;clip-rule:evenodd;fill:url(#Path_6_00000029022104981517582840000016062312995416494254_);" d="
								M852.4,634c-1.2,6.8-3.2,13.5-5,20.2c-0.6,2.3-1.7,5-4.5,4.2c-2.4-0.6-5.6-151.2-5.4-172.8c0.1-10.2,7.6-17.2,14.7-23.4
								c2.6-2.3,2.6,2,2.6,3.7C855.1,477.3,857.2,606.7,852.4,634z"/>
							
								<linearGradient id="Path_7_00000040558983089823403610000000199806825136439940_" gradientUnits="userSpaceOnUse" x1="173.1556" y1="1571.0422" x2="1239.6866" y2="2143.875" gradientTransform="matrix(1 0 0 -1 0 2375.7463)">
								<stop  offset="0" style="stop-color:#21A3D0"/>
								<stop  offset="0.355" style="stop-color:#E10A7E"/>
								<stop  offset="1" style="stop-color:#91267F"/>
							</linearGradient>
							
								<path id="Path_7" style="fill-rule:evenodd;clip-rule:evenodd;fill:url(#Path_7_00000040558983089823403610000000199806825136439940_);" d="
								M649.5,500.1c1.4,2.2,2.3,4.6,2.8,7.1c0.5,2.5,0.7,5.1,0.4,7.6c-0.2,2.6-0.9,5.1-2,7.4c-7.5,17.9-17.2,34.6-34.7,45.1
								c-17.3,10.4-35.4,18.1-56,17.8c-4.6,0-5.4,3.1-5.9,6.4c-1.5,10.1-2.5,20.3-4.4,30.3c-5.5,29.3-16.3,56.4-36.7,78.8
								c-4.9,5.5-10.7,10.1-17.1,13.6c-6.5,3.5-13.5,5.9-20.8,7c-7.3,1.1-14.7,0.9-21.9-0.5c-7.2-1.4-14.1-4.1-20.4-7.9
								c-16.3-9.4-26.9-29.7-26-59.1c0.8-15.2,9.3-36.9,18.9-58.3c1.8-4.1,4.1-7.9,6.2-11.8c0.8-1.4,1.6-3,3.5-2.3
								c0.4,0.2,0.8,0.4,1.1,0.7c0.3,0.3,0.6,0.6,0.8,1.1c0.2,0.4,0.3,0.8,0.3,1.3c0,0.4,0,0.9-0.2,1.3c-0.1,0.4-0.2,0.9-0.4,1.4
								c-0.1,0.4-0.2,0.9-0.4,1.4c-0.1,0.5-0.3,0.9-0.5,1.4c-0.2,0.5-0.3,0.9-0.6,1.4c-1.1,2.3-2.1,4.7-3.1,7c-1,2.4-2,4.7-2.9,7.1
								c-0.9,2.4-1.8,4.8-2.7,7.2c-0.9,2.4-1.7,4.8-2.5,7.2c-0.9,2.7-1.7,5.5-2.3,8.4s-1,5.7-1.3,8.6c-0.2,2.9-0.3,5.8-0.3,8.7
								c0.1,2.9,0.3,5.7,0.7,8.6c3.5,21.2,18.1,31.6,36.9,37c17.8,5.2,33.8-0.9,47.8-11.3c21.2-15.8,31.5-38,34.1-64
								c1.2-11.9,3.3-42.3,4.2-45.4c3.4-12.8,3.4-13,16.4-12.2c1.3,0.2,2.6,0.2,3.9,0c1.3-0.2,2.5-0.7,3.7-1.3
								c1.2-0.6,2.2-1.5,3-2.5c0.9-1,1.5-2.2,2-3.4c7.6-15.2,23.3-48.3,40.2-57.3c10.1-5.4,23.1-6,31.1,0.4
								C646.6,495.9,648.2,497.9,649.5,500.1z M632.3,533c1.1-0.8,2-1.7,2.7-2.8c0.7-1.1,1.3-2.3,1.6-3.5c0.4-1.3,0.5-2.6,0.4-3.9
								c0-1.4-0.3-2.6-0.9-3.8c-0.5-1.3-1.2-2.4-1.9-3.5c-0.8-1.1-1.8-2-2.8-2.8c-1.1-0.8-2.2-1.4-3.5-2c-1.3-0.5-2.6-0.8-3.9-1
								c-1.8-0.1-3.6,0-5.4,0.2c-1.8,0.3-3.5,0.7-5.2,1.4c-1.7,0.6-3.3,1.4-4.8,2.4c-1.5,1-2.9,2.1-4.2,3.4c-2.3,2.6-4.4,5.3-6.4,8
								c-2,2.7-3.9,5.6-5.6,8.6c-1.7,2.9-3.4,5.9-4.8,9c-1.5,3.1-2.8,6.2-4,9.4c-1.4,3.2-0.2,4.6,3,3.6
								C603.2,550.8,619.3,545.1,632.3,533z"/>
							
								<linearGradient id="Path_8_00000089566120373036672700000001835369949826703240_" gradientUnits="userSpaceOnUse" x1="136.628" y1="1639.2478" x2="1202.8456" y2="2211.8779" gradientTransform="matrix(1 0 0 -1 0 2375.7463)">
								<stop  offset="0" style="stop-color:#21A3D0"/>
								<stop  offset="0.355" style="stop-color:#E10A7E"/>
								<stop  offset="1" style="stop-color:#91267F"/>
							</linearGradient>
							<path id="Path_8" style="fill:url(#Path_8_00000089566120373036672700000001835369949826703240_);" d="M561.6,527.5
								c-0.2,0.3-0.5,0.6-0.9,0.9c-0.4,0.2-0.8,0.4-1.2,0.4c-0.4,0.1-0.8,0.1-1.3,0c-0.4-0.1-0.8-0.3-1.1-0.5l-17.2-12
								c-0.3-0.2-0.6-0.5-0.8-0.9c-0.2-0.3-0.4-0.7-0.5-1.2c0-0.4,0-0.8,0-1.3c0.1-0.4,0.2-0.8,0.5-1.2l12-17.1
								c0.3-0.3,0.6-0.6,0.9-0.9c0.4-0.2,0.8-0.3,1.2-0.4c0.4,0,0.9,0,1.3,0c0.4,0.1,0.8,0.2,1.2,0.5l17.1,12
								c0.3,0.2,0.7,0.6,0.9,0.9c0.2,0.3,0.4,0.8,0.5,1.2c0,0.4,0,0.9,0,1.3c-0.1,0.4-0.2,0.8-0.5,1.2L561.6,527.5z"/>
							
								<linearGradient id="Path_9_00000000203642824356962860000016656067479049027467_" gradientUnits="userSpaceOnUse" x1="112.5364" y1="1683.8041" x2="1179.0627" y2="2256.4004" gradientTransform="matrix(1 0 0 -1 0 2375.7463)">
								<stop  offset="0" style="stop-color:#21A3D0"/>
								<stop  offset="0.355" style="stop-color:#E10A7E"/>
								<stop  offset="1" style="stop-color:#91267F"/>
							</linearGradient>
							<path id="Path_9" style="fill:url(#Path_9_00000000203642824356962860000016656067479049027467_);" d="M746.3,370.9
								c-0.2,0.3-0.6,0.6-0.9,0.9c-0.3,0.2-0.8,0.3-1.2,0.4c-0.4,0-0.9,0-1.3,0c-0.4-0.1-0.8-0.2-1.2-0.5l-17.1-12
								c-0.3-0.2-0.6-0.6-0.9-0.9c-0.2-0.3-0.4-0.8-0.4-1.2c-0.1-0.4-0.1-0.9,0-1.3c0.1-0.4,0.3-0.8,0.5-1.2l12-17.1
								c0.2-0.3,0.5-0.6,0.9-0.9c0.3-0.2,0.7-0.4,1.2-0.4c0.4-0.1,0.8-0.1,1.3,0c0.4,0.1,0.8,0.3,1.2,0.5l17.1,12
								c0.3,0.2,0.6,0.5,0.9,0.9c0.2,0.3,0.4,0.7,0.4,1.2c0.1,0.4,0.1,0.8,0,1.3c-0.1,0.4-0.3,0.8-0.5,1.1L746.3,370.9z"/>
							
								<linearGradient id="Path_10_00000156588061364019706960000008377630744093988233_" gradientUnits="userSpaceOnUse" x1="219.8755" y1="1483.6718" x2="1286.7683" y2="2056.2825" gradientTransform="matrix(1 0 0 -1 0 2375.7463)">
								<stop  offset="0" style="stop-color:#21A3D0"/>
								<stop  offset="0.355" style="stop-color:#E10A7E"/>
								<stop  offset="1" style="stop-color:#91267F"/>
							</linearGradient>
							<path id="Path_10" style="fill:url(#Path_10_00000156588061364019706960000008377630744093988233_);" d="M722.6,631.9
								l-17.2-12.1c-0.3-0.2-0.7-0.4-1.1-0.5c-0.4-0.1-0.9-0.1-1.3,0c-0.4,0.1-0.8,0.2-1.2,0.5c-0.4,0.2-0.7,0.5-0.9,0.9l-11.8,16.7
								l-16.9-11.8c-0.3-0.2-0.7-0.4-1.1-0.5c-0.4-0.1-0.9-0.1-1.3,0c-0.4,0-0.8,0.2-1.2,0.4c-0.4,0.2-0.7,0.5-0.9,0.9l-12,17.1
								c-0.2,0.3-0.4,0.7-0.5,1.2c-0.1,0.4-0.1,0.8,0,1.3c0,0.4,0.2,0.8,0.4,1.2c0.2,0.3,0.5,0.7,0.9,0.9l17.1,12
								c0.3,0.2,0.7,0.4,1.2,0.5c0.4,0.1,0.8,0.1,1.3,0c0.4-0.1,0.8-0.2,1.2-0.4c0.3-0.2,0.7-0.5,0.9-0.9l11.7-16.7l16.9,11.8
								c0.3,0.2,0.7,0.4,1.2,0.5c0.4,0.1,0.8,0.1,1.3,0c0.4-0.1,0.8-0.2,1.2-0.5c0.3-0.2,0.7-0.5,0.9-0.8l12-17.1
								c0.2-0.3,0.4-0.8,0.5-1.2c0.1-0.4,0.1-0.9,0-1.3c0-0.4-0.2-0.8-0.4-1.2C723.2,632.5,722.9,632.2,722.6,631.9L722.6,631.9z"/>
							
								<linearGradient id="Path_11_00000031181848902181985510000002080939708163172012_" gradientUnits="userSpaceOnUse" x1="16.2703" y1="1863.3336" x2="1082.5891" y2="2435.9878" gradientTransform="matrix(1 0 0 -1 0 2375.7463)">
								<stop  offset="0" style="stop-color:#21A3D0"/>
								<stop  offset="0.355" style="stop-color:#E10A7E"/>
								<stop  offset="1" style="stop-color:#91267F"/>
							</linearGradient>
							<path id="Path_11" style="fill:url(#Path_11_00000031181848902181985510000002080939708163172012_);" d="M167.7,395.9
								l-14.7,14.9c-0.3,0.3-0.5,0.7-0.7,1.1c-0.1,0.4-0.2,0.8-0.2,1.3c0,0.4,0,0.8,0.2,1.2c0.1,0.4,0.4,0.7,0.7,1l14.6,14.4
								l-14.5,14.7c-0.3,0.3-0.5,0.7-0.7,1.1c-0.1,0.4-0.2,0.8-0.2,1.2s0.1,0.9,0.2,1.3c0.2,0.4,0.4,0.7,0.7,1l14.9,14.7
								c0.3,0.3,0.7,0.5,1.1,0.7c0.4,0.1,0.8,0.2,1.3,0.2c0.4,0,0.8-0.1,1.2-0.2c0.4-0.2,0.7-0.4,1-0.7l14.7-14.9
								c0.3-0.3,0.5-0.6,0.7-1c0.1-0.4,0.2-0.8,0.2-1.3c0-0.4,0-0.8-0.2-1.2c-0.1-0.4-0.4-0.7-0.7-1.1l-14.6-14.3l14.5-14.7
								c0.3-0.3,0.5-0.7,0.7-1.1c0.1-0.4,0.2-0.8,0.2-1.2c0-0.4-0.1-0.9-0.2-1.3c-0.2-0.4-0.4-0.7-0.7-1l-14.9-14.7
								c-0.3-0.3-0.7-0.5-1.1-0.7c-0.4-0.2-0.8-0.2-1.3-0.2c-0.4,0-0.8,0.1-1.2,0.2C168.4,395.4,168.1,395.6,167.7,395.9z"/>
							
								<linearGradient id="Path_12_00000146488760423218476380000004619242191907376530_" gradientUnits="userSpaceOnUse" x1="350.8659" y1="1649.0834" x2="1416.6447" y2="2221.3228" gradientTransform="matrix(1 0 0 -1 0 2375.7463)">
								<stop  offset="0" style="stop-color:#21A3D0"/>
								<stop  offset="0.355" style="stop-color:#E10A7E"/>
								<stop  offset="1" style="stop-color:#91267F"/>
							</linearGradient>
							<path id="Path_12" style="fill:url(#Path_12_00000146488760423218476380000004619242191907376530_);" d="M733.6,519.7
								c0,0.5,0,0.9,0,1.4c0,0.4,0,0.9-0.1,1.4c0,0.4,0,0.9-0.1,1.3c0,0.4-0.1,0.9-0.2,1.3c-5.3,2.4-35.4,17.2-40.7,19.8
								c0,0,0-0.1,0-0.2c0-0.1,0-0.2,0-0.2c0-0.1,0-0.2,0-0.3c0,0,0-0.1,0-0.2c0.2-1.4,0.4-2.9,0.6-4.3c3.3-1.8,6.6-3.6,9.9-5.4
								c3.4-1.7,6.7-3.4,10.1-5.1c3.4-1.6,6.8-3.2,10.2-4.8C726.6,522.7,730.1,521.2,733.6,519.7z"/>
							
								<linearGradient id="Path_13_00000116227045273577806180000015281840201164815271_" gradientUnits="userSpaceOnUse" x1="481.7429" y1="1856.762" x2="1547.9943" y2="2429.3052" gradientTransform="matrix(1 0 0 -1 0 2375.7463)">
								<stop  offset="0" style="stop-color:#21A3D0"/>
								<stop  offset="0.355" style="stop-color:#E10A7E"/>
								<stop  offset="1" style="stop-color:#91267F"/>
							</linearGradient>
							<path id="Path_13" style="fill:url(#Path_13_00000116227045273577806180000015281840201164815271_);" d="M718.7,385.3
								c0.1,0.4,0.1,0.9,0.2,1.4c0.1,0.4,0.1,0.9,0.2,1.3c0,0.4,0,0.9,0,1.4c0,0.4,0,0.9,0,1.3c-4.8,3.3-31.6,23.3-36.4,26.9
								c0-0.1,0-0.2,0-0.3c0,0,0-0.1,0-0.2c0-0.1,0-0.1,0-0.2c0-0.1,0-0.2,0-0.3c-0.1-1.4-0.1-2.9-0.2-4.4c2.9-2.4,5.8-4.7,8.8-7
								c3-2.3,6-4.6,9-6.8c3-2.2,6.1-4.4,9.2-6.6C712.4,389.5,715.6,387.4,718.7,385.3L718.7,385.3z"/>
							
								<linearGradient id="Path_14_00000095296496733018806860000016017268425163908542_" gradientUnits="userSpaceOnUse" x1="334.9074" y1="1678.8185" x2="1400.6909" y2="2251.0579" gradientTransform="matrix(1 0 0 -1 0 2375.7463)">
								<stop  offset="0" style="stop-color:#21A3D0"/>
								<stop  offset="0.355" style="stop-color:#E10A7E"/>
								<stop  offset="1" style="stop-color:#91267F"/>
							</linearGradient>
							<path id="Path_14" style="fill:url(#Path_14_00000095296496733018806860000016017268425163908542_);" d="M758.2,468.2
								c0,0.4,0,0.9,0,1.3c0,0.5,0,0.9-0.1,1.4c0,0.4-0.1,0.9-0.1,1.3c0,0.5-0.1,0.9-0.2,1.4c-5.3,2.3-35.4,17.1-40.7,19.8
								c0-0.1,0-0.2,0-0.3c0,0,0-0.1,0-0.2s0-0.2,0-0.2c0-0.1,0-0.2,0-0.3c0.2-1.4,0.4-2.9,0.6-4.3c3.3-1.8,6.6-3.6,9.9-5.4
								c3.3-1.7,6.7-3.4,10.1-5.1c3.4-1.6,6.8-3.2,10.2-4.8C751.3,471.1,754.8,469.6,758.2,468.2L758.2,468.2z"/>
							
								<linearGradient id="Path_15_00000024003479731668531530000015494416038671757731_" gradientUnits="userSpaceOnUse" x1="53.3846" y1="1793.946" x2="1119.9542" y2="2366.5811" gradientTransform="matrix(1 0 0 -1 0 2375.7463)">
								<stop  offset="0" style="stop-color:#21A3D0"/>
								<stop  offset="0.355" style="stop-color:#E10A7E"/>
								<stop  offset="1" style="stop-color:#91267F"/>
							</linearGradient>
							<path id="Path_15" style="fill:url(#Path_15_00000024003479731668531530000015494416038671757731_);" d="M564.3,323.6
								c-0.1,1.2-0.4,2.3-0.7,3.4c-0.3,1.1-0.7,2.2-1.1,3.3c-0.4,1.1-0.9,2.1-1.4,3.1c-0.6,1-1.2,2-1.9,2.9
								c-0.3,0.3-0.6,0.5-0.9,0.8c-0.3,0.2-0.7,0.5-1.1,0.7c-0.3,0.2-0.7,0.4-1.1,0.5c-0.4,0.1-0.8,0.3-1.2,0.4
								c-9.7,3.7-103.1,38.2-112.8,41.8c-37.7,14-75.6,27.7-112.9,42.8c-8.4,3.4-16.6,7.2-24.9,11c-2.2,1-4.2,2.3-6.3,3.5
								c-0.7,0.3-1.3,0.8-1.9,1.2c-5.3,3.6-5.1,5.5,0.8,8.3c2.3,1.1,4.8,2,7.2,3c1.4,0.5,2.7,1.1,4.2,1.5c0.4,0.1,0.9,0.3,1.3,0.5
								c0.4,0.2,0.8,0.6,1.1,0.9c0.2,0.4,0.5,0.8,0.6,1.3c0.1,0.4,0.2,0.9,0.2,1.4c0,2.6,0.1,5.2,0,7.8c-0.1,1.9-1.1,2.8-2.8,2.6
								c-1.4-0.1-2.7-0.4-4.1-0.7c-1.4-0.3-2.7-0.7-4-1.1c-1.4-0.4-2.7-0.9-3.9-1.4c-1.3-0.6-2.6-1.2-3.8-1.8
								c-0.3-0.2-0.6-0.4-1-0.6c-0.3-0.2-0.6-0.4-0.9-0.6c-0.3-0.2-0.6-0.4-0.9-0.7c-0.3-0.2-0.6-0.5-0.8-0.8
								c-0.7-0.6-1.3-1.3-1.8-2c-0.5-0.7-0.9-1.5-1.2-2.4c-0.3-0.8-0.5-1.7-0.6-2.6c0-0.9,0-1.8,0.1-2.7c0-0.4,0.1-0.9,0.2-1.4
								c0.1-0.5,0.2-0.9,0.3-1.4c0.1-0.5,0.2-0.9,0.4-1.4c0.1-0.4,0.3-0.9,0.5-1.3c0.6-1.6,1.3-3.1,2-4.6s1.5-2.9,2.4-4.4
								c0.9-1.4,1.8-2.8,2.8-4.1c1-1.4,2-2.7,3.1-3.9c0.8-0.9,1.5-1.7,2.4-2.6c0.9-0.8,1.7-1.5,2.7-2.2c1-0.7,1.9-1.3,2.9-1.8
								c1-0.6,2.1-1.1,3.2-1.5c17.1-6.6,34.1-13.5,51.4-19.9c38.1-14.1,159.8-58.9,198-72.9C560,325,561.7,324.5,564.3,323.6z"/>
							
								<linearGradient id="Path_16_00000043455602473216842490000015591457059260050087_" gradientUnits="userSpaceOnUse" x1="154.1824" y1="1605.5967" x2="1221.2537" y2="2178.4148" gradientTransform="matrix(1 0 0 -1 0 2375.7463)">
								<stop  offset="0" style="stop-color:#21A3D0"/>
								<stop  offset="0.355" style="stop-color:#E10A7E"/>
								<stop  offset="1" style="stop-color:#91267F"/>
							</linearGradient>
							<path id="Path_16" style="fill:url(#Path_16_00000043455602473216842490000015591457059260050087_);" d="M730.1,453.6
								c0-0.4,0.1-0.8,0.1-1.2c0.1-0.4,0.1-0.8,0.2-1.2s0.1-0.8,0.2-1.2c0.1-0.4,0.2-0.8,0.3-1.2c0.2,0,0.5-0.1,0.7-0.1
								c0.2,0,0.4,0.1,0.7,0.2c0.2,0.1,0.4,0.2,0.6,0.3c0.2,0.2,0.3,0.3,0.4,0.5c0.1,0.2,0.3,0.4,0.4,0.6c0.1,0.2,0.2,0.4,0.3,0.6
								c0.1,0.2,0.2,0.4,0.3,0.6c0.1,0.2,0.2,0.4,0.2,0.6c0.8,2.2,1.4,4.4,2,6.6c0.1,0.4,0.2,0.9,0.4,1.3c0.1,0.4,0.3,0.8,0.6,1.2
								c0.2,0.4,0.5,0.8,0.7,1.1c0.3,0.3,0.6,0.7,0.9,1c0.2,0.2,0.4,0.4,0.7,0.6c0.2,0.2,0.5,0.3,0.8,0.4s0.6,0.2,0.9,0.2
								c0.3,0,0.6,0,0.9,0c0.3,0,0.5,0,0.8-0.1c0.2,0,0.5-0.2,0.7-0.3c0.2-0.1,0.4-0.3,0.6-0.6c0.1-0.2,0.3-0.4,0.4-0.7
								c-0.3-0.4-0.7-0.9-1-1.3c-1.1-1.2-2.1-2.4-3.2-3.6c-0.5-0.5-0.9-1.1-1.3-1.7c-0.4-0.6-0.6-1.3-0.8-2
								c-0.2-0.7-0.3-1.4-0.3-2.1c0-0.7,0-1.4,0.2-2.1c0-0.3,0.1-0.7,0.1-1c0.1-0.3,0.1-0.7,0.2-1c0.1-0.3,0.2-0.6,0.4-1
								c0.1-0.3,0.3-0.6,0.4-0.9c0.6,0,0.7,0.4,0.7,0.7c0.1,0.6,0.2,1.3,0.4,1.9c0.2,0.6,0.4,1.3,0.7,1.8c0.2,0.6,0.6,1.2,1,1.7
								c0.4,0.6,0.8,1.1,1.3,1.5c0.5,0.6,1,1.2,1.5,1.8c0.5,0.6,0.9,1.2,1.3,1.9c0.3,0.7,0.6,1.4,0.9,2.1c0.2,0.8,0.4,1.5,0.5,2.3
								c0.1,0.8,0.1,1.5,0,2.3c0,0.4,0,0.9-0.2,1.4c-0.1,0.4-0.2,0.9-0.4,1.3c-0.2,0.4-0.4,0.8-0.7,1.2c-0.3,0.3-0.6,0.7-0.9,1
								c-0.4,0.4-1,0.8-1.5,1.1c-0.6,0.3-1.2,0.4-1.8,0.5c-0.6,0-1.3,0-1.9-0.1c-0.6-0.2-1.2-0.4-1.6-0.8c-0.2-0.1-0.4-0.3-0.5-0.4
								c-0.2-0.2-0.3-0.3-0.5-0.5c-0.2-0.1-0.3-0.3-0.5-0.5c-0.1-0.1-0.3-0.3-0.4-0.5c-0.2-0.2-0.5-0.4-0.9-0.8
								c-0.2,0.9-0.3,1.5-0.5,2.2c-0.1,0.4-0.2,0.8-0.4,1.2c-0.1,0.4-0.3,0.8-0.5,1.2c-0.2,0.3-0.4,0.7-0.7,1.1
								c-0.2,0.3-0.5,0.6-0.8,0.9c-0.5,0.5-1.2,1-1.8,1.3c-0.7,0.3-1.4,0.4-2.1,0.4s-1.5-0.1-2.2-0.4c-0.7-0.3-1.3-0.7-1.8-1.3
								c-0.3-0.2-0.6-0.6-0.8-0.9c-0.2-0.3-0.5-0.7-0.7-1c-0.1-0.4-0.3-0.7-0.4-1.1c-0.1-0.4-0.2-0.8-0.3-1.2
								c-0.3-2.4-0.5-4.8-0.8-7.3c-0.1-1.3-0.1-2.5-0.4-3.7c0-0.2-0.1-0.4-0.2-0.7c0-0.2-0.1-0.4-0.2-0.6c-0.1-0.2-0.2-0.4-0.3-0.6
								c-0.1-0.2-0.2-0.4-0.3-0.6c-0.1-0.2-0.2-0.4-0.4-0.5c-0.2-0.1-0.4-0.2-0.6-0.3c-0.2,0-0.5,0-0.7,0c-0.2,0.1-0.4,0.2-0.6,0.4
								s-0.4,0.4-0.7,0.6c-0.2,0.2-0.4,0.4-0.6,0.6c-0.2,0.2-0.4,0.4-0.6,0.6c-0.2,0.2-0.4,0.4-0.5,0.7c-0.4,0.4-0.7,0.9-1.1,1.4
								c-0.3,0.5-0.7,1-1,1.5c-0.3,0.5-0.6,1-0.9,1.5c-0.2,0.5-0.5,1.1-0.8,1.6c-0.7,1.4-1.3,2.9-1.9,4.4c-0.2,0.4-0.4,0.9-0.7,1.5
								c-0.2-0.2-0.3-0.5-0.4-0.8c-0.1-0.3-0.1-0.6-0.2-0.9c0-0.3,0-0.6,0-0.9c0-0.3,0.1-0.6,0.2-0.9c0.3-1,0.7-1.9,1.1-2.8
								c0.4-0.9,0.8-1.8,1.3-2.7c0.4-0.9,0.9-1.8,1.4-2.7c0.5-0.9,1-1.8,1.5-2.7c0.2-0.3,0.4-0.7,0.7-1.1c0.2-0.3,0.5-0.7,0.7-1
								c0.3-0.3,0.5-0.7,0.8-1c0.2-0.3,0.5-0.6,0.8-1c0.1-0.1,0.2-0.3,0.4-0.4c0.1-0.1,0.3-0.3,0.4-0.4c0.1-0.1,0.3-0.2,0.4-0.3
								c0.1-0.1,0.3-0.2,0.5-0.3c0.2-0.1,0.4-0.2,0.6-0.3c0.2,0,0.4-0.1,0.7,0c0.2,0,0.4,0.1,0.6,0.2c0.2,0.1,0.4,0.2,0.6,0.4
								c0.1,0.1,0.2,0.3,0.4,0.4c0.1,0.2,0.3,0.3,0.4,0.5c0.1,0.2,0.2,0.4,0.3,0.5c0.1,0.2,0.2,0.4,0.3,0.6c0.1,0.3,0.2,0.6,0.4,0.9
								c0.1,0.3,0.2,0.6,0.3,1c0.1,0.3,0.1,0.6,0.2,1c0.1,0.3,0.1,0.7,0.1,1c0.2,2.6,0.5,5.3,0.8,7.9c0,0.4,0.1,0.7,0.2,1.1
								c0.1,0.3,0.2,0.7,0.4,1c0.1,0.3,0.3,0.7,0.5,1c0.2,0.3,0.4,0.6,0.7,0.8c0.4,0.4,0.9,0.8,1.4,1c0.5,0.2,1.2,0.3,1.7,0.3
								c0.6,0,1.2-0.2,1.7-0.4c0.5-0.2,1-0.6,1.4-1.1c0.2-0.2,0.5-0.5,0.6-0.8c0.2-0.3,0.3-0.6,0.4-1c0.1-0.3,0.2-0.7,0.2-1
								c0-0.3,0-0.7,0-1.1c-0.1-0.7-0.2-1.4-0.4-2.1c-0.1-0.7-0.3-1.4-0.6-2c-0.2-0.7-0.5-1.4-0.7-2c-0.3-0.7-0.6-1.3-0.9-2
								c-0.1-0.2-0.2-0.4-0.4-0.6c-0.1-0.2-0.3-0.3-0.4-0.5c-0.1-0.2-0.3-0.4-0.5-0.6C730.4,454,730.3,453.8,730.1,453.6
								L730.1,453.6z"/>
						</g>
						<g id="Group_2">
							
								<linearGradient id="Path_17_00000116224884245982711660000006311678273410994603_" gradientUnits="userSpaceOnUse" x1="95.0826" y1="1716.595" x2="1161.3822" y2="2289.8376" gradientTransform="matrix(1 0 0 -1 0 2375.7463)">
								<stop  offset="0" style="stop-color:#209FDA"/>
								<stop  offset="0.595" style="stop-color:#E10A7E"/>
								<stop  offset="1" style="stop-color:#91267F"/>
							</linearGradient>
							
								<path id="Path_17" style="fill-rule:evenodd;clip-rule:evenodd;fill:url(#Path_17_00000116224884245982711660000006311678273410994603_);" d="
								M173.4,646.7L163,625.9h-9.4v20.8h-7.5v-49.3h19.1c2-0.2,4,0.1,5.8,0.7c1.9,0.7,3.6,1.7,5.1,3c1.4,1.4,2.6,3,3.3,4.9
								s1.2,3.8,1.1,5.8c0,1.5-0.1,2.9-0.6,4.4c-0.5,1.4-1.2,2.7-2,3.9c-0.9,1.2-2,2.2-3.2,3c-1.2,0.8-2.6,1.4-4.1,1.8l11.4,21.8
								L173.4,646.7z M153.7,604v15.5h11.1c2.2,0.2,4.3-0.6,5.9-2c1.6-1.5,2.5-3.5,2.5-5.7s-0.9-4.2-2.5-5.7c-1.6-1.4-3.7-2.2-5.9-2
								H153.7z"/>
							
								<linearGradient id="Path_18_00000120523061745693450560000008983373396694980488_" gradientUnits="userSpaceOnUse" x1="102.0556" y1="1703.65" x2="1168.225" y2="2276.2996" gradientTransform="matrix(1 0 0 -1 0 2375.7463)">
								<stop  offset="0" style="stop-color:#209FDA"/>
								<stop  offset="0.595" style="stop-color:#E10A7E"/>
								<stop  offset="1" style="stop-color:#91267F"/>
							</linearGradient>
							<path id="Path_18" style="fill:url(#Path_18_00000120523061745693450560000008983373396694980488_);" d="M191.6,646.7v-49.3
								h7.5v49.3H191.6z"/>
							
								<linearGradient id="Path_19_00000115485907224624514420000009347580630010707074_" gradientUnits="userSpaceOnUse" x1="106.8124" y1="1694.615" x2="1173.8596" y2="2267.2065" gradientTransform="matrix(1 0 0 -1 0 2375.7463)">
								<stop  offset="0" style="stop-color:#209FDA"/>
								<stop  offset="0.595" style="stop-color:#E10A7E"/>
								<stop  offset="1" style="stop-color:#91267F"/>
							</linearGradient>
							<path id="Path_19" style="fill:url(#Path_19_00000115485907224624514420000009347580630010707074_);" d="M228.2,626.4v20.3
								h-7.5v-20.3l-14.8-29h8.2l10.4,21.7l10.3-21.7h8.2L228.2,626.4z"/>
							
								<linearGradient id="Path_20_00000154424698033216792300000007353608734788574898_" gradientUnits="userSpaceOnUse" x1="119.0405" y1="1672.0055" x2="1185.152" y2="2244.6548" gradientTransform="matrix(1 0 0 -1 0 2375.7463)">
								<stop  offset="0" style="stop-color:#209FDA"/>
								<stop  offset="0.595" style="stop-color:#E10A7E"/>
								<stop  offset="1" style="stop-color:#91267F"/>
							</linearGradient>
							
								<path id="Path_20" style="fill-rule:evenodd;clip-rule:evenodd;fill:url(#Path_20_00000154424698033216792300000007353608734788574898_);" d="
								M275.3,646.7l-3.4-9.9h-19.5l-3.4,9.9H241l18.1-49.3h6l18.1,49.3H275.3z M262.4,608.5l-7.7,21.9h15.1L262.4,608.5z"/>
							
								<linearGradient id="Path_21_00000147212117647147400950000005099515453595918479_" gradientUnits="userSpaceOnUse" x1="125.8344" y1="1659.2745" x2="1192.1001" y2="2232.3" gradientTransform="matrix(1 0 0 -1 0 2375.7463)">
								<stop  offset="0" style="stop-color:#209FDA"/>
								<stop  offset="0.595" style="stop-color:#E10A7E"/>
								<stop  offset="1" style="stop-color:#91267F"/>
							</linearGradient>
							
								<path id="Path_21" style="fill-rule:evenodd;clip-rule:evenodd;fill:url(#Path_21_00000147212117647147400950000005099515453595918479_);" d="
								M320.4,642c-0.9,0.8-1.8,1.5-2.8,2.1c-1,0.6-2,1.1-3.1,1.5c-1.1,0.4-2.2,0.7-3.4,0.9c-1.2,0.1-2.3,0.2-3.5,0.1h-17.3v-49.3
								h17.3c1.2,0,2.3,0,3.5,0.2c1.2,0.1,2.3,0.4,3.4,0.9c1.1,0.4,2.1,0.9,3.1,1.5c1,0.6,1.9,1.3,2.7,2.1c5.4,5.4,5,12.5,5,19.7
								C325.4,628.8,325.7,636.7,320.4,642z M315.3,607.3c-0.5-0.5-1.1-1.1-1.8-1.5c-0.6-0.4-1.3-0.8-2-1.1
								c-0.7-0.3-1.5-0.5-2.3-0.6c-0.7-0.1-1.5-0.2-2.3-0.1h-9.1V640h9.1c0.8,0,1.6,0,2.3-0.1c0.8-0.1,1.5-0.3,2.3-0.6
								c0.7-0.3,1.4-0.7,2.1-1.1c0.6-0.4,1.2-0.9,1.7-1.5c2.6-2.8,2.7-8.2,2.7-15S317.8,610.2,315.3,607.3L315.3,607.3z"/>
							
								<linearGradient id="Path_22_00000116918156067878306010000010276715600953346224_" gradientUnits="userSpaceOnUse" x1="137.5383" y1="1637.5071" x2="1203.8572" y2="2210.1565" gradientTransform="matrix(1 0 0 -1 0 2375.7463)">
								<stop  offset="0" style="stop-color:#209FDA"/>
								<stop  offset="0.595" style="stop-color:#E10A7E"/>
								<stop  offset="1" style="stop-color:#91267F"/>
							</linearGradient>
							<path id="Path_22" style="fill:url(#Path_22_00000116918156067878306010000010276715600953346224_);" d="M364,646.7v-21.6
								H344v21.6h-7.5v-49.3h7.5v21.1H364v-21.1h7.5v49.3H364z"/>
							
								<linearGradient id="Path_23_00000078044766638219041820000016145011158860146057_" gradientUnits="userSpaceOnUse" x1="120.7794" y1="1668.754" x2="1187.0548" y2="2241.4033" gradientTransform="matrix(1 0 0 -1 0 2375.7463)">
								<stop  offset="0" style="stop-color:#209FDA"/>
								<stop  offset="0.595" style="stop-color:#E10A7E"/>
								<stop  offset="1" style="stop-color:#91267F"/>
							</linearGradient>
							<path id="Path_23" style="fill:url(#Path_23_00000078044766638219041820000016145011158860146057_);" d="M153.7,673.4v15
								h20.5v6.8h-20.5V716h-7.5v-49.3h31.5v6.7H153.7L153.7,673.4z"/>
							
								<linearGradient id="Path_24_00000166676030825104361620000015171101629397405835_" gradientUnits="userSpaceOnUse" x1="133.0621" y1="1645.8593" x2="1199.3567" y2="2219.1018" gradientTransform="matrix(1 0 0 -1 0 2375.7463)">
								<stop  offset="0" style="stop-color:#209FDA"/>
								<stop  offset="0.595" style="stop-color:#E10A7E"/>
								<stop  offset="1" style="stop-color:#91267F"/>
							</linearGradient>
							
								<path id="Path_24" style="fill-rule:evenodd;clip-rule:evenodd;fill:url(#Path_24_00000166676030825104361620000015171101629397405835_);" d="
								M214,716l-10.4-20.8h-9.4V716h-7.5v-49.3h19.1c2-0.2,4,0.1,5.8,0.7c1.9,0.7,3.6,1.7,5.1,3c1.4,1.4,2.6,3,3.3,4.9
								c0.8,1.8,1.2,3.8,1.1,5.8c0,1.5-0.1,2.9-0.6,4.4c-0.4,1.4-1.1,2.7-2,3.9c-0.9,1.2-2,2.2-3.2,3c-1.3,0.8-2.6,1.4-4.1,1.8
								l11.4,21.8H214z M205.3,673.4h-11.1v15.5h11.1c2.2,0.2,4.3-0.5,5.9-2c1.6-1.4,2.5-3.5,2.5-5.7c0-2.2-0.9-4.2-2.5-5.7
								C209.6,674,207.5,673.2,205.3,673.4z"/>
							
								<linearGradient id="Path_25_00000178176126394724190990000013157424334050435983_" gradientUnits="userSpaceOnUse" x1="142.7959" y1="1627.8048" x2="1209.0907" y2="2200.4109" gradientTransform="matrix(1 0 0 -1 0 2375.7463)">
								<stop  offset="0" style="stop-color:#209FDA"/>
								<stop  offset="0.595" style="stop-color:#E10A7E"/>
								<stop  offset="1" style="stop-color:#91267F"/>
							</linearGradient>
							
								<path id="Path_25" style="fill-rule:evenodd;clip-rule:evenodd;fill:url(#Path_25_00000178176126394724190990000013157424334050435983_);" d="
								M261.2,711.2c-1.7,1.7-3.8,3-6,3.9c-2.2,0.9-4.6,1.4-7,1.4c-2.4,0-4.8-0.5-7-1.4c-2.2-0.9-4.2-2.2-6-3.9
								c-4.9-4.9-4.8-10.3-4.8-19.8s-0.1-15,4.8-19.8c1.7-1.7,3.8-3,6-3.9c2.2-0.9,4.6-1.4,7-1.4c2.4,0,4.8,0.5,7,1.4
								c2.2,0.9,4.2,2.2,6,3.9c4.9,4.8,4.7,10.3,4.7,19.8S266,706.3,261.2,711.2z M255.5,676c-1-1-2.1-1.7-3.4-2.3
								c-1.3-0.5-2.6-0.8-4-0.8c-1.4,0-2.7,0.2-4,0.8c-1.3,0.5-2.4,1.3-3.4,2.3c-2.4,2.7-2.9,5.4-2.9,15.3c0,9.9,0.5,12.7,2.9,15.3
								c1,1,2.1,1.7,3.4,2.3c1.3,0.5,2.6,0.8,4,0.8c1.4,0,2.7-0.3,4-0.8c1.3-0.5,2.4-1.3,3.4-2.3c2.4-2.6,2.9-5.4,2.9-15.3
								C258.4,681.4,257.9,678.7,255.5,676L255.5,676z"/>
							
								<linearGradient id="Path_26_00000181081523351824453210000010980161170681428380_" gradientUnits="userSpaceOnUse" x1="153.4424" y1="1608.0472" x2="1219.2404" y2="2180.6919" gradientTransform="matrix(1 0 0 -1 0 2375.7463)">
								<stop  offset="0" style="stop-color:#209FDA"/>
								<stop  offset="0.595" style="stop-color:#E10A7E"/>
								<stop  offset="1" style="stop-color:#91267F"/>
							</linearGradient>
							<path id="Path_26" style="fill:url(#Path_26_00000181081523351824453210000010980161170681428380_);" d="M307.3,716
								l-22.8-34.7V716H277v-49.3h6.8l22.8,34.7v-34.7h7.5V716H307.3z"/>
							
								<linearGradient id="Path_27_00000098922261084978162560000006397807956902407582_" gradientUnits="userSpaceOnUse" x1="161.8371" y1="1592.3256" x2="1228.0498" y2="2164.917" gradientTransform="matrix(1 0 0 -1 0 2375.7463)">
								<stop  offset="0" style="stop-color:#209FDA"/>
								<stop  offset="0.595" style="stop-color:#E10A7E"/>
								<stop  offset="1" style="stop-color:#91267F"/>
							</linearGradient>
							<path id="Path_27" style="fill:url(#Path_27_00000098922261084978162560000006397807956902407582_);" d="M343.8,673.4v42.6
								h-7.5v-42.6h-13.6v-6.8h34.7v6.8H343.8z"/>
						</g>
					</g>
				</g>
			</g>
		</g>
	</g>
</g>
<g id="Layer_2">
</g>
</svg>
