<?xml version="1.0" encoding="UTF-8"?>
<svg id="Layer_2" data-name="Layer 2" xmlns="http://www.w3.org/2000/svg" version="1.1" viewBox="0 0 1000 1000">
  <defs>
    <style>
      .cls-1 {
        fill: #f1cf47;
      }

      .cls-1, .cls-2 {
        stroke-width: 0px;
      }

      .cls-2 {
        fill: #489dac;
      }
    </style>
  </defs>
  <g>
    <path class="cls-2" d="M415.2,464.7c0-24.8.2-49.6-.1-74.5,0-4.9,1.5-6.2,6.2-6.2,12.1.1,12.1-.1,12.1-12.2s.2-31.5-.2-47.2c-.1-5.3,1.7-6.3,6.6-6.3,28.9.2,57.9-.3,86.7.2,27.7.5,47.7,14.3,59.3,38.9,11.6,24.5,7.5,48-9.1,69-3.2,4.1-3.8,6.1-.2,10.5,17.1,21.2,21,45,9.2,69.6-11.9,24.7-32.1,38.4-60.2,38.5-34.5.2-69.1-.1-103.6.2-5.3,0-6.9-1.3-6.9-6.7.3-24.6.1-49.2.1-73.8h0ZM497.4,367.5c-6.2,0-12.5.1-18.7,0-2.9,0-4.3.8-4.3,4,.1,10.3.1,20.7,0,31,0,2.5.6,4,3.6,4,12.5-.1,25,.4,37.4-.3,10.8-.6,18.2-10.3,17.6-20.9-.6-10-8.9-17.5-19.5-17.7-5.4,0-10.7,0-16.1,0h0ZM496.7,496h15.5c11.7,0,20.1-7.2,20.8-17.7.7-11.2-7.1-20.3-19-20.9-11.8-.7-23.7-.2-35.6-.3-3.3,0-4,1.6-4,4.4,0,10.2.1,20.3,0,30.4,0,3.1,1.2,4.2,4.2,4.1,6-.1,12.1,0,18.1,0h0Z"/>
    <path class="cls-2" d="M338.2,318.6c27.2,0,54.4.1,81.5-.1,5.4,0,7.6,1,7.4,7-.5,15.5-.3,31,0,46.6.1,5-1.6,6.2-6.3,6.1-15.3-.3-30.6.2-45.9-.2-5.8-.2-7.6,1.3-7.6,7.5.3,50.9,0,101.8.3,152.7,0,5.7-1.5,7.3-7.2,7.2-15.1-.4-30.2-.4-45.3,0-5.4.1-6.9-1.5-6.9-6.9.2-50.5.2-100.9.2-151.4s-3.1-8.9-9.2-8.9c-14.4,0-28.9-.2-43.4.1-4.7.1-5.9-1.5-5.8-5.9.2-15.8.3-31.5,0-47.2-.1-5.1,1.5-6.6,6.6-6.6,27.2.2,54.4.1,81.5.1h.1Z"/>
    <path class="cls-2" d="M671.8,545.2c-29.9-.3-54.6-10.4-76.1-29.1-3.5-3.1-3.4-4.9-.1-8.1,11.4-11.2,22.7-22.5,33.7-34,3-3.1,4.6-3,7.8-.4,20.4,15.9,48.6,15.5,68.6-.8,2.5-2.1,3.9-2.3,6.2.2,11.8,12,23.8,23.8,35.9,35.5,2.9,2.8,2.2,4.3-.4,6.6-21.8,19.8-47.4,30.1-75.7,30.3h0Z"/>
    <path class="cls-2" d="M749.9,352.4c-1,1.2-1.9,2.1-2.7,3-11.7,11.8-23.5,23.5-35,35.5-2.6,2.8-4.2,2.2-6.9.2-20.4-16-48.7-15.9-68.8.3-3.1,2.5-4.6,2.3-7.3-.4-11.5-11.7-23.1-23.3-34.9-34.6-3-2.9-2.7-4.1.2-6.9,40.8-39.6,110.2-40.3,151.3-1.4,1.4,1.3,2.6,2.8,4.1,4.4h0Z"/>
    <path class="cls-1" d="M597.1,493.9c3.5-22.3-.7-41.8-14.3-59.1-1.3-1.7-1.9-3.1-.3-5.1,12.8-16.2,17.6-34.7,15.4-55.2,0-.6.3-1.2.5-2.2,4.5,2.7,7.4,6.8,10.8,10.2,15.4,15.4,30.6,30.9,46.1,46.3,2.8,2.8,2.8,4.4,0,7.2-18.6,18.6-37,37.3-55.5,56-.5.6-1.3,1-2.6,1.9Z"/>
  </g>
  <g>
    <path class="cls-2" d="M276.7,615.7c-.3,2.6-1.8,4.7-4.4,6.1-2.4,1.3-5.3,2-8.8,2s-8.3-1.4-10.7-4.1c-1.7-2-2.6-4.5-2.6-7.5s.5-4.2,1.6-5.9l5.1-1.1c-1.2,2-1.7,4-1.7,6.1s.7,4.2,2.1,5.5c1.4,1.3,3.5,2,6.2,2,4.2,0,6.8-1.1,7.7-3.2h-4.1l2.7-5.2h7.1v5.2h-.1ZM260.6,633.3c-.8,0-1.5-.3-2.1-.8-.5-.5-.8-1.2-.8-2.1s.3-1.5.8-2,1.2-.8,2.1-.8,1.5.3,2,.7.7,1.2.7,2c0,1.9-1,2.9-2.8,2.9h0ZM267.1,633.3c-.8,0-1.5-.3-2.1-.8s-.8-1.2-.8-2.1c0-1.9,1-2.8,2.8-2.8s1.5.3,2,.7.7,1.2.7,2c0,1.9-1,2.9-2.8,2.9h.1Z"/>
    <path class="cls-2" d="M274.7,615.7v-5.2h7.5v5.2h-7.5Z"/>
    <path class="cls-2" d="M279.6,615.7v-5.2h7.5v5.2h-7.5Z"/>
    <path class="cls-2" d="M284.5,615.7v-5.2h7.5v5.2h-7.5Z"/>
    <path class="cls-2" d="M289.5,615.7v-5.2h7.5v5.2h-7.5Z"/>
    <path class="cls-2" d="M294.5,615.7v-5.2h7.5v5.2h-7.5Z"/>
    <path class="cls-2" d="M299.4,615.7v-5.2h7.5v5.2h-7.5Z"/>
    <path class="cls-2" d="M304.4,615.7v-5.2h3.9c1.1,0,1.9-.2,2.3-.7.5-.5.7-1.3.7-2.4v-7.9l5.4-2.8v11c0,2.6-.8,4.6-2.4,6.1-1.4,1.3-3.2,1.9-5.4,1.9h-4.4ZM314.1,592.5c-.8,0-1.5-.3-2.1-.8s-.8-1.2-.8-2.1.3-1.5.8-2,1.2-.8,2.1-.8,1.5.3,2,.7.7,1.2.7,2c0,1.9-1,2.9-2.8,2.9h0Z"/>
    <path class="cls-2" d="M332.1,615.7c-2.6,0-4.6-.8-6-2.5-1.2-1.4-1.9-3.3-1.9-5.5v-16.8l5.4-2.8v19.3c0,1.1.2,1.9.7,2.4s1.2.7,2.3.7h3.9v5.2h-4.4Z"/>
    <path class="cls-2" d="M333.9,615.7v-5.2h7.5v5.2h-7.5Z"/>
    <path class="cls-2" d="M338.9,615.7v-5.2h7.5v5.2h-7.5Z"/>
    <path class="cls-2" d="M343.9,615.7v-5.2h7.5v5.2h-7.5Z"/>
    <path class="cls-2" d="M364,610.6h3.9v5.2h-4.3c-2.1,0-3.8-.6-5.2-1.7-1.4,1.1-3.1,1.7-5.2,1.7h-4.3v-5.2h3.9c1.1,0,1.9-.2,2.3-.7.5-.5.7-1.3.7-2.4v-7.9l5.4-2.8v10.7c0,1.1.2,1.9.7,2.4s1.2.7,2.3.7h-.1ZM358.6,619.6c.8,0,1.5.3,2,.7s.7,1.2.7,2c0,1.9-1,2.9-2.8,2.9s-1.5-.3-2.1-.8c-.5-.5-.8-1.2-.8-2.1s.3-1.5.8-2c.5-.5,1.2-.8,2.1-.8h0Z"/>
    <path class="cls-2" d="M365.3,615.7v-5.2h7.5v5.2h-7.5Z"/>
    <path class="cls-2" d="M370.3,615.7v-5.2h7.5v5.2h-7.5Z"/>
    <path class="cls-2" d="M375.2,615.7v-5.2h7.5v5.2h-7.5Z"/>
    <path class="cls-2" d="M407.4,610.6h3.8v5.2h-4.3c-2.1,0-3.8-.5-5-1.6-1.5,1.6-3.5,2.4-6.1,2.4s-4.6-.8-6.1-2.4c-1.4,1.1-3.1,1.6-5.1,1.6h-4.3v-5.2h3.9c1.1,0,1.9-.2,2.3-.7.5-.5.7-1.3.7-2.4v-1.2c0-3.3.8-5.9,2.6-7.8,1.5-1.6,3.5-2.4,6.1-2.4s5.1,1.1,6.7,3.2c1.3,1.8,2,4.1,2,7v1.2c0,1.1.2,1.9.7,2.4s1.3.7,2.3.7h0ZM395.7,611.4c2.2,0,3.2-1.7,3.2-5.3s-1.1-5.1-3.2-5.1-3.3,1.7-3.3,5.1,1.1,5.3,3.3,5.3Z"/>
    <path class="cls-2" d="M408.6,615.7v-5.2h7.5v5.2h-7.5Z"/>
    <path class="cls-2" d="M413.6,615.7v-5.2h7.5v5.2h-7.5Z"/>
    <path class="cls-2" d="M418.5,615.7v-5.2h7.5v5.2h-7.5Z"/>
    <path class="cls-2" d="M423.5,615.7v-5.2h7.5v5.2h-7.5Z"/>
    <path class="cls-2" d="M443.1,610.6h3.9v5.2h-4.3c-2.2,0-4-.6-5.4-1.9-1.6,1.3-3.5,1.9-5.8,1.9h-3v-5.2h2.7c1.3,0,2.2-.3,2.8-.8s.8-1.5.8-2.9v-15.8l5.3-2.9v8.6h0v10.7c0,1.1.2,1.9.7,2.4s1.2.7,2.3.7h0Z"/>
    <path class="cls-2" d="M444.4,615.7v-5.2h2.7c1.3,0,2.2-.3,2.8-.8s.8-1.5.8-2.9v-15.8l5.3-2.9v18.7c0,2.8-.8,5-2.5,6.6-1.5,1.5-3.6,2.3-6.1,2.3h-3Z"/>
    <path class="cls-2" d="M484.8,610.6h3.9v5.2h-4.3c-1,0-1.9-.1-2.7-.4-.4,2.8-1.5,4.9-3.3,6.5-1.6,1.4-3.6,2.1-5.9,2.1s-3.5-.5-5.2-1.4v-4.7c1.5.8,2.9,1.2,4.3,1.2s2.8-.5,3.6-1.5,1.3-2.4,1.3-4.2v-13.9l3.5-1.9,1.9-1h0v10.7c0,1.1.2,1.9.7,2.4s1.2.7,2.3.7h0Z"/>
    <path class="cls-2" d="M486,615.7v-5.2h7.5v5.2h-7.5Z"/>
    <path class="cls-2" d="M491,615.7v-5.2h7.5v5.2h-7.5Z"/>
    <path class="cls-2" d="M496,615.7v-5.2h7.5v5.2h-7.5Z"/>
    <path class="cls-2" d="M500.9,615.7v-5.2h7.5v5.2h-7.5Z"/>
    <path class="cls-2" d="M505.9,615.7v-5.2h7.5v5.2h-7.5Z"/>
    <path class="cls-2" d="M513.1,625.3c-.8,0-1.5-.3-2.1-.8-.5-.5-.8-1.2-.8-2.1,0-1.9,1-2.8,2.8-2.8s1.5.3,2,.7.7,1.2.7,2c0,1.9-1,2.9-2.8,2.9h.1ZM510.8,615.7v-5.2h3.9c1.1,0,1.9-.2,2.3-.7.5-.5.7-1.3.7-2.4v-7.9l5.4-2.8v11c0,2.6-.8,4.6-2.4,6.1-1.4,1.3-3.2,1.9-5.4,1.9h-4.4ZM519.7,625.3c-.8,0-1.5-.3-2.1-.8-.5-.5-.8-1.2-.8-2.1,0-1.9,1-2.8,2.8-2.8s1.5.3,2,.7.7,1.2.7,2c0,1.9-1,2.9-2.8,2.9h.1Z"/>
    <path class="cls-2" d="M551,610.6v5.2h-5.2c-.2,2.5-1.3,4.6-3.4,6.1-1.7,1.3-3.7,1.9-6,1.9s-3.5-.5-5.2-1.4v-4.7c1.5.9,3.1,1.3,4.6,1.3s2.3-.3,3.2-1c.9-.7,1.4-1.4,1.5-2.3-.2,0-.6,0-1.1-.1-.5,0-.8-.1-1.1-.1-2.9-.3-5.2-1.5-6.8-3.4-1.3-1.7-2-3.7-2-6.1s.8-5.6,2.5-7.5c1.5-1.6,3.5-2.4,6-2.4s4.5.8,5.9,2.4c1.2,1.4,1.9,3.2,1.9,5.4v6.6h5.2,0ZM540.5,603.8c0-1.9-.8-2.8-2.4-2.8s-3.2,1.5-3.2,4.7,1.3,4.3,3.8,4.6c.4.1,1.1.2,1.9.2v-6.7Z"/>
    <path class="cls-2" d="M548.5,615.7v-5.2h7.5v5.2h-7.5Z"/>
    <path class="cls-2" d="M553.4,615.7v-5.2h7.5v5.2h-7.5Z"/>
    <path class="cls-2" d="M595.6,610.6h3.9v5.2h-4.3c-2.1,0-3.8-.5-5-1.6-1.3,1.1-3,1.6-4.9,1.6h-26.8v-5.2h7.7l.5-1.4v-18.1l5.4-2.9v12.3c2.9-3,6.2-4.4,10-4.4s6.1,1.2,8.1,3.5c1.7,2,2.5,4.4,2.5,7.3v.9c0,1.9,1,2.8,3,2.8h0ZM584.9,610.6c1,0,1.6-.2,1.9-.6s.4-1.2.4-2.3v-.8c0-1.7-.5-3.1-1.5-4.2s-2.2-1.6-3.8-1.6-3.9.7-5.6,2.2c-1.7,1.4-3.3,3.4-4.4,6v1.3h13.1Z"/>
    <path class="cls-2" d="M596.9,615.7v-5.2h3.9c1.1,0,1.9-.2,2.3-.7s.7-1.3.7-2.4v-7.9l5.4-2.8v11c0,2.6-.8,4.6-2.4,6.1-1.4,1.3-3.2,1.9-5.4,1.9h-4.4ZM600,592.5c-.8,0-1.5-.3-2.1-.8s-.8-1.2-.8-2.1c0-1.9,1-2.8,2.8-2.8s1.5.3,2,.7c.5.5.7,1.2.7,2,0,1.9-1,2.9-2.8,2.9h.1ZM606.5,592.5c-.8,0-1.5-.3-2.1-.8s-.8-1.2-.8-2.1c0-1.9,1-2.8,2.8-2.8s1.5.3,2,.7c.5.5.7,1.2.7,2,0,1.9-1,2.9-2.8,2.9h.1Z"/>
    <path class="cls-2" d="M643.9,610.6h3.9v5.2h-4.3c-2.6,0-4.7-.9-6.1-2.6-1.2,1-2.7,1.4-4.5,1.4-2.6,0-4.7-1-6.3-3-1.3-1.6-1.9-3.6-1.9-5.9s.9-5.1,2.8-6.9c1.5-1.5,3.3-2.2,5.3-2.2s2,.2,2.9.6v-1.1l5.3-2.8v14.2c0,1.1.2,1.9.7,2.4s1.3.7,2.3.7h0ZM630.1,591.6c-.8,0-1.5-.3-2.1-.8-.5-.5-.8-1.2-.8-2.1,0-1.9,1-2.8,2.8-2.8s1.5.3,2,.7c.5.5.7,1.2.7,2,0,1.9-1,2.9-2.8,2.9h.1ZM635.5,602.6c-.7-.6-1.6-1-2.5-1s-1.7.4-2.3,1.2-.9,1.8-.9,3,.3,2.3.8,3,1.4,1.1,2.3,1.1,1.9-.4,2.5-1.1v-6.2h0ZM636.7,591.6c-.8,0-1.5-.3-2.1-.8-.5-.5-.8-1.2-.8-2.1,0-1.9,1-2.8,2.8-2.8s1.5.3,2,.7.7,1.2.7,2c0,1.9-1,2.9-2.8,2.9h.1Z"/>
    <path class="cls-2" d="M645.2,615.7v-5.2h7.5v5.2h-7.5Z"/>
    <path class="cls-2" d="M650.1,615.7v-5.2h7.5v5.2h-7.5Z"/>
    <path class="cls-2" d="M655.1,615.7v-5.2h7.5v5.2h-7.5Z"/>
    <path class="cls-2" d="M670.1,596.9c2.1.2,4,.8,5.7,1.9,2.9,2,4.3,4.8,4.3,8.5v.6c0,2.5-.8,4.5-2.4,6-1.4,1.2-3.2,1.9-5.4,1.9h-12.2v-5.2h11.7c2,0,3-1,3-3v-.3c0-1.5-.6-2.8-1.7-3.8s-2.8-1.4-4.7-1.4-2.9.3-4.5.8v-5.2l8.7-9.7h5.4l-7.8,8.7h0Z"/>
    <path class="cls-2" d="M697.2,610.6h3.9v5.2h-4.3c-1,0-1.9-.1-2.7-.4-.4,2.8-1.5,4.9-3.3,6.5-1.6,1.4-3.6,2.1-5.9,2.1s-3.5-.5-5.2-1.4v-4.7c1.5.8,2.9,1.2,4.3,1.2s2.8-.5,3.6-1.5,1.3-2.4,1.3-4.2v-13.9l3.5-1.9,1.9-1h0v10.7c0,1.1.2,1.9.7,2.4.5.5,1.2.7,2.3.7h0Z"/>
    <path class="cls-2" d="M698.5,615.7v-5.2h7.5v5.2h-7.5Z"/>
    <path class="cls-2" d="M703.5,615.7v-5.2h7.5v5.2h-7.5Z"/>
    <path class="cls-2" d="M708.4,615.7v-5.2h4.5c1.1,0,1.9-.2,2.3-.7s.7-1.3.7-2.4v-5.7l5.4-2.8v8.5c0,1.1.2,1.9.7,2.4.5.5,1.2.7,2.3.7h2.9c1.1,0,1.9-.2,2.3-.7s.7-1.3.7-2.4v-6.8l5.4-2.9v9.6c0,1.1.2,1.9.7,2.4s1.3.7,2.3.7h2.9c1.1,0,1.9-.2,2.3-.7s.7-1.3.7-2.4v-7.9l5.4-2.8v11c0,2.5-.8,4.5-2.3,6-1.3,1.3-3.1,2-5.3,2h-4.2c-2.1,0-3.8-.6-5.2-1.9-1.2,1.2-2.9,1.9-4.9,1.9h-4.2c-2.1,0-3.8-.6-5.2-1.9-1.3,1.3-3.1,1.9-5.2,1.9h-5.1ZM729.4,593c-.8,0-1.5-.3-2.1-.8-.5-.5-.8-1.2-.8-2.1s.3-1.5.8-2c.5-.5,1.2-.8,2.1-.8s1.5.3,2,.7c.5.5.7,1.2.7,2,0,1.9-1,2.9-2.8,2.9h0ZM732.7,586.7c-1.7,0-2.5-.8-2.5-2.6s.8-2.5,2.5-2.5,2.5.8,2.5,2.5-.8,2.6-2.5,2.6ZM736,593c-.8,0-1.5-.3-2.1-.8-.5-.5-.8-1.2-.8-2.1s.3-1.5.8-2c.5-.5,1.2-.8,2.1-.8s1.5.3,2,.7.7,1.2.7,2c0,1.9-1,2.9-2.8,2.9h0Z"/>
  </g>
  <g>
    <path class="cls-2" d="M258.7,653.1h-7.3v-4.2h20.4v4.2h-7.8v21h-5.2v-21Z"/>
    <path class="cls-2" d="M288.6,674.1h-4l-.4-1.7c-1.7,1.5-3.5,2.2-5.3,2.2-4,0-6-2-6-5.9s.8-3.4,2.5-4.5c1.7-1.1,4.2-1.7,7.5-1.7h.8c0-1.2-.3-2-.7-2.4-.5-.4-1.3-.6-2.6-.6s-3.3.6-4.8,1.7c-.5-.9-1-1.7-1.4-2.6,1.5-1.2,2.9-2,4-2.4s2.5-.6,4-.6c4.2,0,6.3,2.6,6.3,8v10.6h.2ZM283.5,665.6h-.6c-1.5,0-2.8.3-3.6.8s-1.4,1.2-1.4,2.1c0,1.6.7,2.5,2.2,2.5s1.6-.3,2.3-.7c.7-.5,1.1-1.2,1.2-1.9v-2.7h-.1Z"/>
    <path class="cls-2" d="M306.1,660.1h-5.2v8.9c0,1.3.4,2,1.3,2s1.8-.3,3-1.1l1.7,2.5c-1.9,1.5-4,2.2-6.2,2.2s-4.8-1.7-4.8-5.2v-9.4h-2.5v-4h2.5v-3.2c1.3-.7,3-1.6,5.1-2.6v5.9h5.1v4h0Z"/>
    <path class="cls-2" d="M319.9,674.1h-4.4l-6.2-18.1h5.1l3.3,12,2.6-12h5.1c.4,1.9,1.1,5,2,9.2l.6,2.8,3.4-12h5.2l-.9,2.5-.5,1.2c-2.3,6.4-4,11.2-5.1,14.3h-4.4c-.3-1.2-.7-2.8-1.2-4.8-.7-3-1.3-5.3-1.7-6.7-.3,1.2-.7,3-1.3,5.3-.7,2.9-1.2,4.9-1.5,6.2h0Z"/>
    <path class="cls-2" d="M356.9,666.7h-12.4c.1,1.2.6,2.2,1.5,3.1.9.8,2,1.2,3.2,1.2,1.7,0,3.5-.5,5.4-1.6l1.3,2.6c-1.9,1.7-4.3,2.5-7.2,2.5s-5.5-.9-7.2-2.6c-1.6-1.6-2.5-3.9-2.5-6.8s1-5.2,2.8-7,3.8-2.5,6.3-2.5,5.1,1,6.7,2.9c1.4,1.6,2.1,3.8,2.1,6.4v1.9h.1ZM344.2,663h7.7c-.2-2.6-1.4-3.9-3.8-3.9s-3.6,1.3-3.9,3.9Z"/>
    <path class="cls-2" d="M378.6,666.7h-12.4c.1,1.2.6,2.2,1.5,3.1.9.8,2,1.2,3.2,1.2,1.7,0,3.5-.5,5.4-1.6l1.3,2.6c-1.9,1.7-4.3,2.5-7.2,2.5s-5.5-.9-7.2-2.6c-1.6-1.6-2.5-3.9-2.5-6.8s1-5.2,2.8-7c1.7-1.7,3.8-2.5,6.3-2.5s5.1,1,6.7,2.9c1.4,1.6,2.1,3.8,2.1,6.4v1.9h.1ZM365.9,663h7.7c-.2-2.6-1.4-3.9-3.8-3.9s-3.6,1.3-3.9,3.9Z"/>
    <path class="cls-2" d="M387.8,656l.5,1.6c.3-.6.8-1.1,1.5-1.4.7-.4,1.5-.6,2.3-.6,2.4,0,4.2,1.1,5.3,3.4l-4.2,2.3c-.9-1-1.8-1.5-2.8-1.5s-1.6.5-2,1.4v13h-4.9v-18.1h4.3Z"/>
    <path class="cls-2" d="M411.7,674.1v-25.1c2-.4,4.4-.5,7.4-.5s5.8.8,7.4,2.3c1.3,1.3,1.9,2.9,1.9,4.9s-.5,2.4-1.5,3.4c-1.1,1-2.2,1.5-3.4,1.5h0c1.7.2,3.1.9,4.2,2.1,1,1.2,1.5,2.6,1.5,4.4s-1.1,4.4-3.1,5.7c-1.9,1.2-4.3,1.7-7.4,1.7s-4.9-.2-6.8-.5h-.1ZM417,652.9v5.8h3c2.2,0,3.3-1,3.3-2.8s-1.4-3.2-4.1-3.2h-.1c-.7,0-1.4.1-2.1.3h0ZM417,662.9v7.3c.7.2,1.6.3,2.8.3,2.6,0,3.9-1.1,3.9-3.4s-1.3-4.2-4-4.2c0,0-2.7,0-2.7,0Z"/>
    <path class="cls-2" d="M445.9,672c-1.3,1.7-3.1,2.5-5.4,2.5s-3.9-.6-4.9-1.8c-1-1.2-1.5-3.2-1.5-5.9v-10.8h4.9v9.5c0,1.8.2,3.1.7,3.8.5.7,1.3,1.1,2.5,1.1s1.1-.2,1.7-.4,1-.5,1.2-.8v-13.2h5v18.1h-3.8l-.4-2.1h0Z"/>
    <path class="cls-2" d="M455.5,651.4c0-.8.3-1.6.9-2.2.6-.6,1.3-1,2.1-1s1.6.3,2.3.9,1,1.4,1,2.2-.3,1.7-.9,2.3-1.4.9-2.3.9-1.6-.3-2.2-.9c-.6-.6-.8-1.3-.8-2.3h0ZM461.1,656v18.1h-5.1v-18.1h5.1Z"/>
    <path class="cls-2" d="M472.1,648.4v25.7h-5v-23.1l5-2.6Z"/>
    <path class="cls-2" d="M491.1,674.1l-.7-1.9c-.4.7-1.1,1.3-2.1,1.7-1,.5-2,.7-3,.7-2.9,0-5-1-6.5-2.8-1.3-1.6-1.9-3.6-1.9-6,0-3.5,1-6.1,3-8,1.5-1.4,3.3-2.1,5.4-2.1s3.4.5,4.6,1.5v-5.8l5-2.8v25.6h-4,0ZM490.1,667.2v-5.1c-.2-.9-.6-1.6-1.3-2.2-.6-.6-1.4-.8-2.3-.8-1.4,0-2.4.5-3.2,1.6-.8,1.1-1.2,2.5-1.2,4.3,0,4,1.3,5.9,3.9,5.9s1.9-.4,2.6-1.1c.8-.7,1.3-1.6,1.4-2.6h0Z"/>
    <path class="cls-2" d="M500.5,651.4c0-.8.3-1.6.9-2.2.6-.6,1.3-1,2.1-1s1.6.3,2.3.9,1,1.4,1,2.2-.3,1.7-.9,2.3-1.4.9-2.3.9-1.6-.3-2.2-.9c-.6-.6-.8-1.3-.8-2.3h0ZM506.2,656v18.1h-5.1v-18.1h5.1Z"/>
    <path class="cls-2" d="M517,657.8c.5-.6,1.3-1.1,2.4-1.6,1.1-.4,2.1-.6,3-.6,2.3,0,3.9.6,5,1.9,1.1,1.2,1.5,3.3,1.5,6v10.6h-5.1v-10.4c0-2.6-1.2-3.9-3.5-3.9s-1.2.1-1.9.4c-.7.3-1.1.5-1.4.8v13.1h-5v-18.1h4.3c.2.7.3,1.3.4,1.7h.2Z"/>
    <path class="cls-2" d="M546.3,671.9c-1.2,1.8-2.9,2.6-5.1,2.6s-4.7-1-6.2-2.8c-1.3-1.6-1.9-3.6-1.9-6,0-3.5,1-6.1,3-8,1.5-1.4,3.3-2.1,5.4-2.1s3.1.4,4.3,1.2c.8.5,1.2,1,1.2,1.2l.4-2h3.9v16.2c0,3.1-.7,5.4-2.3,7-1.5,1.6-3.6,2.4-6.3,2.4s-5.3-1-7.5-2.9l1.3-2.5c1.6,1.1,3.4,1.6,5.4,1.6,2.9,0,4.3-2,4.3-6ZM546.3,662.2c-.1-.8-.5-1.5-1.2-2.1-.7-.6-1.5-.9-2.3-.9-1.3,0-2.4.5-3.2,1.6-.8,1.1-1.2,2.5-1.2,4.3,0,4,1.3,5.9,3.9,5.9s2-.4,2.8-1.3c.8-.8,1.2-1.8,1.2-3v-4.6h0Z"/>
    <path class="cls-2" d="M568.1,660.4c-1.3-.8-2.8-1.3-4.4-1.3s-1.9.5-1.9,1.6.8,1.7,2.6,2.2c2.2.5,3.6,1.1,4.4,1.8,1.1,1,1.7,2.4,1.7,4.3s-.6,3.1-1.8,4.1c-1.2,1-2.9,1.5-4.9,1.5-2.9,0-5.3-.8-7.4-2.5l1.9-2.8c1.4,1.1,3,1.6,5,1.6s1.4-.2,1.9-.5c.5-.4.7-.8.7-1.5,0-1.1-1-1.9-2.8-2.2-4-.8-6-2.8-6-5.9s.6-2.8,1.9-3.8c1.2-1,2.8-1.5,4.7-1.5s4.7.7,6.6,2.2l-1.9,2.6h-.1Z"/>
    <path class="cls-2" d="M604.1,671.3c-2.2,2.2-4.8,3.3-7.8,3.3-4.3,0-7.5-1.6-9.6-4.8-1.5-2.3-2.3-5-2.3-8s1.1-7.2,3.1-9.7c2.1-2.4,4.9-3.6,8.5-3.6s5.1,1.1,7.7,3.2l-2,3.3c-1.9-1.4-3.6-2.1-5.2-2.1s-3.9.9-5.1,2.8c-1.1,1.6-1.5,3.6-1.5,6.1s.6,4.1,1.9,5.7c1.3,1.7,3,2.5,5.2,2.5s3.1-.6,5.1-1.9l2,3.1h0Z"/>
    <path class="cls-2" d="M616,655.6c3,0,5.3,1.1,6.9,3.1,1.4,1.7,2.1,3.9,2.1,6.4s-1,5.3-3.1,7.2c-1.7,1.5-3.6,2.3-5.9,2.3s-4.8-1-6.6-3c-1.6-1.8-2.4-4-2.4-6.5s.9-5.3,2.6-7.1c1.6-1.6,3.8-2.5,6.3-2.5ZM616,670.8c2.6,0,3.9-1.9,3.9-5.7s-1.3-6-3.9-6-3.9,2-3.9,6,1.3,5.7,3.9,5.7Z"/>
    <path class="cls-2" d="M634.8,657.8c1.5-1.5,3.3-2.2,5.6-2.2s2.9.3,4.1,1,2,1.5,2.4,2.6c.6-1.1,1.5-1.9,2.8-2.6s2.6-1,4-1c4.2,0,6.3,2.6,6.3,7.7v10.8h-5.1v-9.5c0-1.8-.3-3-.8-3.8-.5-.7-1.4-1.1-2.6-1.1-1.7,0-3.2.7-4.3,2.1v12.3h-5v-10c0-1.6-.3-2.7-.8-3.3-.6-.6-1.5-1-2.9-1s-1.5.1-2.3.4c-.7.3-1.2.5-1.4.9v13.1h-5v-18.1h4.3l.4,1.7h.3Z"/>
    <path class="cls-2" d="M669.8,656l.5,1.7c1.1-1.5,2.7-2.2,4.7-2.2,2.9,0,5.1,1,6.7,2.9,1.4,1.6,2,3.8,2,6.3s-1,5.9-3,7.7c-1.6,1.4-3.5,2.2-5.9,2.2s-1.4-.2-2.2-.4c-.8-.3-1.3-.6-1.6-1v8h-4.9v-25.2h3.8,0ZM670.9,663.1v4.6c0,1,.3,1.7,1,2.4.6.7,1.4,1,2.3,1,1.2,0,2.2-.6,3-1.7s1.2-2.5,1.2-4.3-.4-3.2-1.1-4.3c-.7-1.1-1.6-1.6-2.9-1.6s-1.7.4-2.5,1.2-1.1,1.7-1.1,2.8h0Z"/>
    <path class="cls-2" d="M703.1,674.1h-4l-.4-1.7c-1.7,1.5-3.5,2.2-5.3,2.2-4,0-6-2-6-5.9s.8-3.4,2.5-4.5c1.7-1.1,4.2-1.7,7.5-1.7h.8c0-1.2-.3-2-.7-2.4-.5-.4-1.3-.6-2.6-.6s-3.3.6-4.8,1.7c-.5-.9-1-1.7-1.4-2.6,1.5-1.2,2.9-2,4-2.4s2.5-.6,4-.6c4.2,0,6.3,2.6,6.3,8v10.6h.2ZM698.1,665.6h-.6c-1.5,0-2.8.3-3.6.8s-1.4,1.2-1.4,2.1c0,1.6.7,2.5,2.2,2.5s1.6-.3,2.3-.7,1.1-1.2,1.2-1.9v-2.7h-.1Z"/>
    <path class="cls-2" d="M714.2,657.8c.5-.6,1.3-1.1,2.4-1.6,1.1-.4,2.1-.6,3-.6,2.3,0,3.9.6,5,1.9s1.5,3.3,1.5,6v10.6h-5.1v-10.4c0-2.6-1.2-3.9-3.5-3.9s-1.2.1-1.9.4c-.7.3-1.1.5-1.4.8v13.1h-5v-18.1h4.3c.2.7.3,1.3.4,1.7h.2Z"/>
    <path class="cls-2" d="M748.6,656c-1.1,3-2.5,7-4.4,12-1.4,3.8-2.4,6.7-3.2,8.7-1.3,3.3-3,5-5.2,5s-3.5-.7-5.4-2.3c.5-.9,1-1.7,1.4-2.4,1,.6,1.9,1,2.6,1,1.1,0,2.1-1.3,2.9-3.9h-1l-6.3-18.1h5c.3.9.7,2.2,1.4,4.1l.3.6c1.2,3.4,2,6,2.5,7.6l4.6-12.3h5-.1Z"/>
  </g>
</svg>